<?xml version="1.0" encoding="utf-8"?>
<!-- Generator: Adobe Illustrator 16.0.0, SVG Export Plug-In . SVG Version: 6.00 Build 0)  -->
<!DOCTYPE svg PUBLIC "-//W3C//DTD SVG 1.1//EN" "http://www.w3.org/Graphics/SVG/1.1/DTD/svg11.dtd">
<svg version="1.1" id="Layer_1" xmlns="http://www.w3.org/2000/svg" xmlns:xlink="http://www.w3.org/1999/xlink" x="0px" y="0px"
	 width="512px" height="512px" viewBox="0 0 512 512" enable-background="new 0 0 512 512" xml:space="preserve">
<path fill="#F7F732" stroke="#000000" stroke-miterlimit="10" d="M156.016,133.938c1.479-11.927,0.983-21.202-4.177-31.897
	c-3.1-6.425-15.251-14.338-10.984-22.863c4.001-7.993,15.848-5.931,21.01-0.416c6.522,6.969,1.063,17.963,4.209,26.045
	c10.469,26.891,33.419,11.494,28.759-12.658c-1.768-9.162-15.325-44.599,11.675-31.671c14.477,6.932,7.976,35.461,12.532,48.857
	c15.233,25.006,34.053,67.708,64.775,58.308c50.599-15.482,125.2-12.705,143.792,39.788c12.584,35.529,13.477,88.224-1.788,121.636
	c-16.039,35.109-63.053,35.769-96.714,32.837c-26.592-2.315-47.623-17.591-63.09-38.965"/>
<path fill="#CCCCCC" stroke="#000000" stroke-width="0.9186" stroke-miterlimit="10" d="M255.815,204.264v40.139
	c0,0,44.996,50.54,65.308,51.369c18.496,0.755,77.574-41.929,72.669-55.596c-4.029-11.224-7.695-39.478-7.695-39.478"/>
<path fill="none" stroke="#000000" stroke-width="0.9518" stroke-miterlimit="10" d="M156.016,131.938
	c-0.06,29.082,10.528,73.424,47,78"/>
<path fill="#FFFFFF" stroke="#000000" stroke-linecap="round" stroke-miterlimit="10" d="M255.815,204.668
	c0-8.982,18.894-12.707,38.07-22.011c18.381-8.917,18.973-15.015,28.831-15.015c9.155,0,18.127,7.799,30.099,12.919
	s29.761,7.563,33.281,16.228c3.521,8.666-21.83,32.529-27.465,38.043c-5.633,5.515-23.238,18.767-37.609,18.767
	c-13.094,0-36.742-15.144-42.376-21.446C273.013,225.853,255.815,210.184,255.815,204.668z"/>
<path fill="#F7F732" d="M383.303,348.48c-41.504-15.802-108.656-36.065-129.343-80.467c-16.235-34.844,20.705-33.416,44.197-28.024
	c29.483,6.767,43.206,8.461,70.487-4.78c26.136-12.686,46.364-9.341,53.737,22.401c8.212,35.343-7.267,70.236-33.377,93.471"/>
<path fill="#CCCCCC" stroke="#000000" stroke-width="0.9518" stroke-miterlimit="10" d="M140.551,273.701v41.59
	c0,0,46.623,52.368,67.669,53.228c19.165,0.781,80.379-43.445,75.296-57.606c-4.175-11.63-7.973-40.905-7.973-40.905"/>
<path fill="none" stroke="#000000" stroke-width="7" stroke-linecap="round" stroke-miterlimit="10" d="M290.016,206.938
	c13.175,4.097,25.582,15.083,37,24"/>
<path fill="#F7F732" stroke="#000000" stroke-miterlimit="10" d="M386.016,216.938c-27.684,6.265-42.104,19.964-63.31,37.155
	c-21.989,17.827-31.219,7.572-48.046-11.434c-28.143-31.787-58.252-36.892-97.724-18.737
	C128.39,246.251,69.53,301.514,81.285,360.729c18.665,94.023,183.934,102.09,219.447,16.591c4.386-10.56,16.518-49.922-3.974-50.583
	c-15.607-0.503-31.6,35.067-47.129,40.902c-40.008,15.032-78.892-45.168-100.537-70.926c-3.021-3.595-6.047-7.186-9.076-10.774"/>
<path fill="none" stroke="#000000" stroke-width="7" stroke-linecap="round" stroke-miterlimit="10" d="M289.016,206.938
	c10.273,0,20.626,0.134,30.849-0.151c0.962-7.811-1.02-15.67-5.746-21.646c13.953,1.526,30.628,13.032,41.897,20.797"/>
<path fill="#FFFFFF" stroke="#000000" stroke-width="1.0959" stroke-miterlimit="10" d="M140.551,274.119
	c0-9.307,19.577-13.166,39.447-22.807c19.045-9.239,19.658-15.557,29.874-15.557c9.486,0,18.782,8.08,31.187,13.387
	c12.405,5.305,30.837,7.836,34.485,16.814s-22.621,33.705-28.458,39.419c-5.838,5.714-24.08,19.445-38.971,19.445
	c-13.567,0-38.07-15.691-43.908-22.222C158.37,296.07,140.551,279.834,140.551,274.119z"/>
<path fill="none" stroke="#000000" stroke-width="7" stroke-linecap="round" stroke-miterlimit="10" d="M212.479,253.056
	c-6.904,1.604-17.752-0.357-22.29,5.679c-3.107,4.133-1.812,27.51,1.315,31.617c11.026,14.483,42.903,5.205,37.67-15.64"/>
</svg>
