<?xml version="1.0" encoding="utf-8"?>
<!-- Generator: Adobe Illustrator 16.0.0, SVG Export Plug-In . SVG Version: 6.00 Build 0)  -->
<!DOCTYPE svg PUBLIC "-//W3C//DTD SVG 1.1//EN" "http://www.w3.org/Graphics/SVG/1.1/DTD/svg11.dtd">
<svg version="1.1" id="Layer_1" xmlns="http://www.w3.org/2000/svg" xmlns:xlink="http://www.w3.org/1999/xlink" x="0px" y="0px"
	 width="512px" height="512px" viewBox="0 0 512 512" enable-background="new 0 0 512 512" xml:space="preserve">
<circle fill="#F8C20F" stroke="#F8E617" stroke-width="6.0877" stroke-miterlimit="10" cx="267.511" cy="243.682" r="197.625"/>
<path fill="#3F3E22" stroke="#6B6847" stroke-width="2.2259" stroke-miterlimit="10" d="M151.442,388.511
	c-2.293-0.149-4.123-2.034-4.161-4.367c-0.169-10.427,3.424-20.239,10.676-29.162c6.016-7.403,14.621-14.249,25.575-20.351
	c21.423-11.932,46.351-18.172,59.303-20.83c32.938-6.76,54.213-14.706,79.082-39.378c15.963-15.837,34.056-33.787,46.226-55.659
	c8.249-14.828,14.633-29.919,21.391-45.897l0.478-1.13c0.957-2.262,3.572-3.322,5.838-2.366c2.267,0.956,3.33,3.565,2.372,5.829
	l-0.478,1.129c-6.854,16.205-13.327,31.511-21.811,46.756c-12.781,22.974-31.35,41.396-47.733,57.648
	c-12.687,12.588-24.922,21.461-38.505,27.922c-11.95,5.686-25.427,9.83-45.062,13.859c-10.022,2.057-35.617,8.113-56.756,19.887
	c-21.279,11.852-31.939,25.848-31.685,41.602c0.041,2.457-1.923,4.479-4.383,4.519C151.686,388.521,151.563,388.52,151.442,388.511z
	"/>
<g>
	<g>
		<path fill="#3F3E22" d="M141.937,192.213l216.432,206.81c0,0,4.1,2.235,7.603-2.238c3.502-4.473-1.493-5.066-1.493-5.066
			L155.189,178.771C155.189,178.771,144.655,180.4,141.937,192.213z"/>
		<g>
			<path fill="#6B6847" d="M142.104,192.168l217.048,206.035l-0.24-0.176c0.136,0.064,0.433,0.184,0.672,0.24
				c0.253,0.071,0.514,0.115,0.774,0.145c0.261,0.022,0.522,0.034,0.78,0.012c0.26-0.01,0.515-0.059,0.766-0.117
				c0.252-0.061,0.498-0.142,0.736-0.252c0.247-0.084,0.464-0.252,0.701-0.367c0.215-0.166,0.443-0.308,0.649-0.492
				c0.197-0.199,0.42-0.361,0.602-0.584c0.168-0.207,0.41-0.457,0.523-0.623c0.168-0.254,0.415-0.559,0.518-0.771
				c0.101-0.211,0.237-0.412,0.291-0.631c0.097-0.221,0.103-0.402,0.116-0.559c-0.011-0.145-0.025-0.25-0.093-0.349
				c-0.046-0.103-0.169-0.213-0.324-0.324c-0.158-0.11-0.364-0.212-0.597-0.292c-0.213-0.082-0.515-0.148-0.688-0.174l-0.423-0.064
				l-0.277-0.28l-52.511-53.052l-26.223-26.558l-26.137-26.642l-26.053-26.725l-26.024-26.753l-25.937-26.839
				c-8.655-8.937-17.265-17.919-25.859-26.915l0.358,0.119c-0.763,0.133-1.564,0.365-2.324,0.639
				c-0.765,0.279-1.51,0.613-2.231,0.994c-0.352,0.205-0.716,0.393-1.059,0.612l-1.017,0.684l-0.957,0.765
				c-0.317,0.258-0.596,0.559-0.896,0.836c-0.308,0.272-0.569,0.586-0.835,0.898c-0.258,0.317-0.556,0.604-0.773,0.954l-0.703,1.01
				c-0.227,0.342-0.403,0.715-0.607,1.071c-0.197,0.361-0.41,0.714-0.552,1.102l-0.477,1.14c-0.18,0.373-0.254,0.784-0.386,1.175
				L142.104,192.168z M141.771,192.259l0.349-1.292c0.123-0.4,0.188-0.82,0.36-1.205l0.455-1.175c0.135-0.4,0.343-0.768,0.534-1.142
				c0.199-0.371,0.371-0.758,0.595-1.115l0.695-1.058c0.216-0.365,0.513-0.669,0.771-1.004c0.266-0.33,0.528-0.662,0.838-0.951
				c0.303-0.295,0.584-0.614,0.905-0.89l0.972-0.819l1.035-0.738c0.351-0.238,0.723-0.443,1.083-0.666
				c0.739-0.416,1.506-0.784,2.297-1.098c0.798-0.309,1.593-0.568,2.466-0.744l0.198-0.04l0.16,0.159
				c8.846,8.75,17.678,17.513,26.462,26.322l26.387,26.397l26.298,26.484l26.269,26.513l26.186,26.594l26.099,26.68l52.134,53.422
				l-0.7-0.344c0.469,0.07,0.803,0.158,1.199,0.3c0.381,0.136,0.766,0.316,1.141,0.577c0.369,0.265,0.749,0.598,1.01,1.072
				c0.277,0.454,0.4,1.004,0.407,1.507c-0.011,0.485-0.095,0.963-0.249,1.341c-0.123,0.412-0.339,0.765-0.538,1.129
				c-0.205,0.361-0.381,0.557-0.573,0.843c-0.262,0.364-0.483,0.575-0.729,0.869c-0.233,0.277-0.534,0.513-0.801,0.769
				c-0.28,0.244-0.604,0.454-0.909,0.676c-0.342,0.178-0.657,0.398-1.026,0.531c-0.355,0.16-0.726,0.281-1.108,0.371
				c-0.379,0.088-0.77,0.155-1.158,0.171c-0.391,0.029-0.78,0.013-1.166-0.025c-0.385-0.045-0.766-0.112-1.139-0.22
				c-0.389-0.108-0.705-0.217-1.151-0.439l-0.121-0.062l-0.12-0.115L141.771,192.259z"/>
		</g>
	</g>
	<path fill="#D2A115" d="M150.588,181.882c0,0,4.087-12.382-12.627-21.178c-16.717-8.795-26.69-17.726-28.375-23.446
		c-1.683-5.72,4.849,31.83,9.925,41.396c5.075,9.566,23.572,16.34,24.729,12.984C145.396,188.281,150.588,181.882,150.588,181.882z"
		/>
	<path fill="#FAEE20" d="M108.202,139.384c-0.003-2.742,2.053-3.43,2.366-3.443c0.3-0.022,1.781,0.537,1.911,1.517
		c3.167,7.688,7.593,11.031,13.853,14.698c1.104,0.646,2.242,1.314,3.328,1.984c0.312,0.192,0.494,0.584,0.461,0.986
		c-0.034,0.401-0.277,0.731-0.612,0.829c-3.023,0.883-4.585,1.717-5.067,2.704c-0.448,0.922-0.094,2.36,0.443,4.536
		c0.374,1.514,0.838,3.398,1.161,5.7c0.046,0.33-0.054,0.659-0.265,0.875c-0.212,0.217-0.508,0.291-0.783,0.198
		c-3.726-1.256-4.395,0.818-5.243,3.444c-0.548,1.692-1.213,3.746-3.048,3.922c-0.256,0.024-0.535,0.012-0.84-0.043
		c-3.739-0.674-4.429-15.417-4.531-18.494"/>
</g>
<path fill="#F6F188" d="M269.224,289.699c-0.764-9.833-8.805-15.516-17.381-18.783c-11.479-4.37-18.208-7.555-27.767-15.417
	c0.536,18.028-15.048,36.871-6.598,55.073"/>
<path fill="#D2A115" d="M266.506,290.22c0.805-7.913-21.66-16.78-37.723-21.827c-10.146-3.189-21.351-14.859-21.351-14.859
	c-0.503,9.909,0.228,66.014,14.227,71.277c10.131,3.809,31.526,1.184,42.706,1.583c2.201-8.606,1.165-18.217,1.643-26.979
	c0.224-4.104,3.156-2.881-0.589-5.622"/>
<path fill="#F6F188" d="M261.832,288.137c-6.955-6.659-22.13-10.729-32.946-12.76c-9.994-1.875-23.431-6.988-33.476-14.159
	c7.761,22.124,9.842,48.733,24.895,60.876c5.687,4.588,18.319,3.603,28.708,2.949c15.221-0.959,21.798-5.536,19.012-15.748
	c-2.01-7.367,3.722-9.977,0.624-17.184"/>
<path fill="#F6F188" d="M267.512,290.61c0.764-9.833,8.804-15.517,17.381-18.782c11.478-4.371,18.208-7.555,27.766-15.418
	c-0.536,18.028,15.049,36.871,6.599,55.072"/>
<path fill="#D2A115" d="M270.229,291.131c-0.804-7.913,21.661-16.779,37.723-21.828c10.146-3.188,21.352-14.858,21.352-14.858
	c0.502,9.909-0.228,66.013-14.227,71.276c-10.131,3.81-31.527,1.184-42.707,1.584c-2.2-8.607-1.164-18.217-1.642-26.98
	c-0.225-4.103-3.156-2.881,0.589-5.621"/>
<path fill="#F6F188" d="M274.903,289.048c6.955-6.659,22.129-10.729,32.945-12.759c9.995-1.877,23.432-6.99,33.477-14.16
	c-7.762,22.123-9.842,48.732-24.896,60.877c-5.687,4.588-18.318,3.602-28.707,2.947c-15.222-0.958-21.798-5.535-19.012-15.747
	c2.01-7.368-3.722-9.977-0.625-17.184"/>
<path fill="#EABF11" d="M345.414,282.976c-0.324-0.293-0.741-0.448-1.166-0.448c-0.175,0-0.351,0.025-0.521,0.08l-65.748,5.088
	c-0.087-0.012-0.173-0.02-0.261-0.02c-0.161,0-0.322,0.031-0.48,0.078l-0.041,0.003c-0.039,0.012-0.073,0.029-0.11,0.044
	c-0.018,0.007-0.037,0.01-0.055,0.018c-0.039,0.016-3.937,1.666-9.314,1.666c-5.256,0-9.883-1.684-9.928-1.699
	c-0.196-0.073-0.401-0.109-0.604-0.109c-0.361,0-0.719,0.113-1.02,0.331c-0.102,0.073-0.189,0.161-0.271,0.252
	c-0.094-0.657-0.553-1.211-1.195-1.413l-66.529-5.149c-0.171-0.054-0.347-0.081-0.522-0.081c-0.424,0-0.841,0.156-1.165,0.449
	c-0.458,0.413-0.662,1.037-0.538,1.641l26.524,64.922c0.131,0.633,0.603,1.143,1.226,1.321l43.919,8.214
	c0.157,0.045,0.317,0.067,0.478,0.067c0.191,0,0.381-0.032,0.562-0.094c0.028,0.061,0.048,0.125,0.083,0.182
	c0.629,1.015,2.713,2.226,9.066,2.226c3.966,0,5.902-0.887,6.784-1.525l43.617-8.158c0.622-0.179,1.094-0.688,1.225-1.322
	l26.525-64.92C346.076,284.013,345.872,283.389,345.414,282.976z"/>
<path fill="#FAEE20" d="M273.805,357.162l3.913-67.986c0,0-4.203,1.809-10.001,1.809c-5.657,0-10.532-1.809-10.532-1.809
	l3.027,67.986c0,0,0.87,1.402,7.589,1.402C272.645,358.564,273.805,357.162,273.805,357.162z"/>
<g>
	<g>
		<path fill="#F7F732" d="M400.346,311.322c8.205-34.943-9.335-80.825-34.403-102.621c-6.958-6.049-9.477-17.344-16.524-26.525
			c-3.497-4.555-2.175-12.927-2.002-21.755c0.095-4.85-1.723-16.339-8.217-12.913c-6.553,3.457,2.22,11.535-0.293,20.872
			c-1.229,4.566-3.912,4.412-7.287,3.975c-7.204-0.931,2.465-22.086-7.204-25.475c-5.653-1.981-3.186,10.281-2.642,14.76
			c0.625,5.148-0.059,9.025-1.49,12.61c-1.475,2.079-7.284,10.496-7.531,11.503c-4.803,19.537,14.097,29.062,27.51,38.025
			c17.425,11.644,24.67,46.708,19.865,66.497c-11.096,45.705-43.128,72.033-79.413,78.564
			c-21.742,3.914-53.102,17.402-52.052,28.027c1.05,10.627,27.287-10.752,57.704-10.752
			C320.425,386.115,382.783,386.12,400.346,311.322z"/>
		<path fill="#F8E617" d="M400.047,311.267c1.107-5.64,1.951-11.288,1.896-17.011c-0.008-1.428,0.094-2.857-0.003-4.283
			l-0.288-4.275l-0.155-2.135l-0.295-2.123l-0.589-4.24c-0.198-1.414-0.548-2.803-0.814-4.203c-0.301-1.395-0.536-2.803-0.892-4.186
			l-1.138-4.125l-0.569-2.061c-0.194-0.686-0.449-1.354-0.671-2.03c-0.926-2.696-1.779-5.415-2.913-8.031l-1.61-3.952l-1.839-3.851
			c-2.411-5.151-5.341-10.027-8.389-14.79c-3.246-4.627-6.598-9.194-10.532-13.201l-1.444-1.527l-0.723-0.762l-0.778-0.702
			l-3.105-2.805l-1.644-1.491l-0.398-0.362l-0.426-0.451l-0.846-0.91c-1.026-1.197-1.936-2.436-2.749-3.713
			c-3.245-5.108-5.476-10.399-8.347-15.123l-1.079-1.754l-1.133-1.697l-1.198-1.628l-0.702-1.021
			c-0.226-0.371-0.484-0.878-0.706-1.32c-0.761-1.679-1.107-3.309-1.333-4.899c-0.217-1.588-0.293-3.13-0.303-4.629
			c-0.024-3.007,0.134-5.89,0.259-8.722c0.049-1.392,0.133-2.885,0.082-4.074c-0.056-1.286-0.201-2.607-0.442-3.875
			c-0.239-1.267-0.573-2.505-1.023-3.562c-0.422-1.057-1.081-1.912-1.429-2.062c-0.17-0.085-0.226-0.104-0.446-0.09
			c-0.11,0.013-0.25,0.041-0.425,0.104c-0.14,0.037-0.428,0.177-0.512,0.223c-0.131,0.08-0.365,0.203-0.41,0.247
			c-0.032,0.037-0.069,0.062-0.114,0.086c-0.047,0.052-0.098,0.099-0.155,0.142c-0.033,0.048-0.066,0.091-0.11,0.129
			c-0.115,0.162-0.191,0.339-0.232,0.713c-0.088,0.743,0.173,2.018,0.532,3.308c0.358,1.31,0.799,2.72,1.169,4.2
			c0.735,2.94,1.208,6.365,0.351,9.699c-0.402,1.516-0.976,3.516-2.823,5.052c-0.917,0.757-2.101,1.187-3.106,1.317
			c-1.019,0.142-1.9,0.084-2.702,0.007c-0.4-0.041-0.789-0.089-1.156-0.142l-0.278-0.04c0.027,0.007-0.488-0.088-0.301-0.056
			l-0.065-0.016l-0.13-0.033l-0.261-0.065l-0.131-0.033l-0.28-0.104c-0.365-0.149-0.783-0.335-1.062-0.54
			c-0.266-0.205-0.54-0.42-0.769-0.652c-0.206-0.24-0.403-0.49-0.589-0.744c-0.148-0.249-0.278-0.499-0.408-0.753
			c-0.836-1.99-0.81-3.613-0.833-5.158c0.038-3.07,0.396-5.891,0.486-8.656c0.049-1.375,0.042-2.726-0.102-3.999
			c-0.148-1.262-0.422-2.474-0.947-3.376c-0.264-0.448-0.56-0.846-0.934-1.148c-0.165-0.18-0.402-0.271-0.593-0.426l-0.619-0.292
			l-0.257-0.078l-0.129-0.039c-0.032-0.008-0.023,0.002-0.037,0c-0.032,0.006-0.058-0.021-0.105-0.01
			c-0.107-0.016-0.07,0.002-0.091-0.009c-0.011-0.025-0.074,0.061-0.164,0.176c-0.081,0.151-0.182,0.34-0.252,0.598
			c-0.307,1.015-0.368,2.395-0.342,3.734c0.029,1.358,0.147,2.749,0.3,4.149l0.51,4.277l0.112,2.24
			c0.009,0.733,0.126,1.393,0.027,2.198l-0.181,2.324l-0.05,0.579l-0.119,0.558l-0.241,1.114c-0.245,1.508-0.854,2.899-1.337,4.325
			l-0.043,0.127l-0.101,0.138c-1.618,2.205-3.2,4.466-4.741,6.731c-0.764,1.13-1.547,2.278-2.232,3.406l-0.261,0.424l-0.159,0.299
			l-0.084,0.137c-0.019,0.023-0.013-0.014-0.027,0.064l-0.028,0.126l-0.112,0.505l-0.226,1.009c-0.062,0.329-0.1,0.642-0.152,0.963
			c-0.219,1.271-0.266,2.613-0.265,3.919c0.077,1.307,0.17,2.625,0.506,3.897c0.572,2.565,1.736,4.98,3.201,7.193
			c1.491,2.206,3.299,4.215,5.288,6.045c1.979,1.843,4.129,3.523,6.357,5.101c2.225,1.586,4.526,3.079,6.841,4.569
			c2.311,1.513,4.661,2.915,6.938,4.588c4.594,3.488,8.046,8.062,10.806,12.948c2.743,4.904,4.841,10.129,6.438,15.489
			c1.606,5.362,2.688,10.872,3.298,16.446c0.604,5.574,0.692,11.228,0.039,16.881c-0.162,1.413-0.389,2.826-0.686,4.232
			l-0.107,0.527c-0.025,0.114-0.019,0.119-0.071,0.322l-0.065,0.25l-0.261,1l-0.521,2.002c-0.702,2.668-1.325,5.332-2.306,8.014
			c-0.906,2.673-1.734,5.394-2.886,7.949l-1.619,3.893l-0.405,0.974l-0.472,0.942l-0.953,1.884
			c-5.023,10.068-11.639,19.405-19.673,27.399c-7.974,8.069-17.583,14.465-27.885,19.207c-1.3,0.569-2.562,1.232-3.895,1.723
			l-3.988,1.496l-1.997,0.742l-2.041,0.605l-4.086,1.21c-1.363,0.396-2.765,0.642-4.146,0.969c-1.363,0.296-2.822,0.642-4.11,0.895
			c-1.384,0.267-2.627,0.54-3.938,0.845c-1.308,0.305-2.611,0.639-3.912,0.984c-5.201,1.4-10.336,3.12-15.348,5.098
			c-5,1.996-9.909,4.232-14.479,6.871c-2.273,1.326-4.472,2.756-6.41,4.342c-1.905,1.562-3.633,3.401-4.309,5.009
			c-0.055,0.188-0.119,0.372-0.191,0.554c-0.013,0.165-0.042,0.324-0.084,0.482c0.01,0.07,0.015,0.139,0.015,0.207l-0.004,0.104
			l-0.004,0.053c0.016,0.152-0.031-0.158-0.018-0.072l0.036,0.256c0.011,0.061,0.029,0.231,0.031,0.178
			c0.017-0.015-0.014-0.047,0.004-0.029c0.055,0.075-0.174-0.274-0.321-0.307c-0.102-0.047,0.126,0.046,0.523,0.033
			c0.817-0.006,2.034-0.266,3.222-0.586c1.208-0.33,2.461-0.745,3.722-1.184c5.062-1.799,10.251-3.899,15.56-5.691
			c5.309-1.811,10.759-3.386,16.355-4.467c2.796-0.544,5.63-0.957,8.489-1.191c1.428-0.126,2.864-0.197,4.302-0.238
			c1.445-0.047,2.886-0.016,4.24-0.006c5.504,0.061,10.966,0.065,16.415-0.08c5.447-0.15,10.874-0.521,16.264-1.152
			c5.391-0.619,10.743-1.538,15.999-2.85c10.506-2.607,20.623-6.939,29.486-13.242c8.899-6.254,16.285-14.624,21.861-24.049
			c2.734-4.741,5.233-9.658,7.1-14.831c1.05-2.542,1.824-5.183,2.684-7.794c0.455-1.299,0.757-2.643,1.125-3.967l1.063-3.987
			L400.047,311.267z M400.643,311.389l-0.001,0.004c-2.515,10.752-6.243,21.273-11.601,30.994
			c-5.433,9.648-12.545,18.511-21.428,25.359c-8.801,6.935-19.085,11.95-29.83,15.175c-5.375,1.624-10.865,2.843-16.394,3.753
			c-5.532,0.898-11.106,1.445-16.673,1.812c-5.566,0.383-11.136,0.469-16.658,0.537c-1.402,0.02-2.72,0.021-4.029,0.094
			c-1.317,0.066-2.634,0.162-3.949,0.309c-2.63,0.286-5.255,0.703-7.866,1.231c-5.225,1.063-10.381,2.603-15.488,4.403
			c-5.125,1.787-10.143,3.879-15.451,5.83c-1.338,0.48-2.698,0.949-4.146,1.361c-1.467,0.398-2.957,0.791-4.903,0.836
			c-0.974-0.004-2.153-0.079-3.503-0.727c-0.674-0.342-1.335-0.846-1.854-1.466c-0.493-0.612-0.868-1.308-1.062-1.917
			c-0.118-0.301-0.198-0.678-0.271-1.023c-0.046-0.221-0.037-0.224-0.056-0.333l-0.036-0.256c-0.004,0.001-0.04-0.397-0.027-0.329
			l-0.007-0.207l-0.006-0.413l0.01-0.826c0.073-0.521,0.165-1.041,0.27-1.556c0.147-0.471,0.308-0.939,0.476-1.402
			c1.559-3.483,3.919-5.602,6.209-7.555c2.336-1.902,4.783-3.477,7.271-4.925c4.983-2.872,10.146-5.209,15.418-7.216
			c5.271-2.004,10.631-3.727,16.096-5.127c1.368-0.346,2.739-0.679,4.121-0.982c1.377-0.305,2.831-0.602,4.158-0.839
			c1.42-0.261,2.646-0.546,3.98-0.815c1.304-0.293,2.629-0.504,3.916-0.863l3.858-1.092l1.931-0.545l1.887-0.678l3.773-1.361
			c1.263-0.443,2.454-1.059,3.686-1.578c9.774-4.328,18.844-10.301,26.577-17.736c7.763-7.4,14.258-16.143,19.282-25.693
			l0.963-1.781l0.483-0.891l0.419-0.922l1.678-3.693c1.2-2.439,2.055-4.979,3.007-7.496c1.01-2.469,1.736-5.158,2.522-7.798
			l0.587-1.983l0.293-0.991l0.073-0.247c-0.006,0.036,0.031-0.129,0.044-0.184l0.114-0.481c0.314-1.28,0.569-2.587,0.764-3.907
			c0.799-5.281,0.863-10.729,0.435-16.127c-0.436-5.402-1.334-10.785-2.745-16.032c-1.392-5.249-3.292-10.38-5.882-15.134
			c-2.571-4.724-5.835-9.21-10.043-12.429c-4.41-3.156-9.226-5.961-13.72-9.225c-4.489-3.249-8.927-6.837-12.169-11.567
			c-3.266-4.679-4.835-10.679-3.97-16.417c0.051-0.36,0.092-0.733,0.151-1.082l0.203-1.014l0.102-0.507
			c0.029-0.108,0.007-0.116,0.079-0.306l0.139-0.33c0.094-0.209,0.203-0.458,0.298-0.627l0.271-0.463
			c0.721-1.244,1.47-2.39,2.224-3.56c1.515-2.325,3.049-4.613,4.601-6.919l-0.144,0.265c0.902-2.565,1.451-5.272,1.443-7.879
			l0.026-0.491c-0.002-0.171-0.025-0.355-0.038-0.532l-0.087-1.072l-0.171-2.052l-0.659-4.247c-0.208-1.445-0.388-2.909-0.475-4.417
			c-0.065-1.518-0.118-3.047,0.32-4.81c0.108-0.438,0.29-0.913,0.547-1.394c0.292-0.482,0.653-1.005,1.271-1.397
			c0.581-0.388,1.33-0.605,1.941-0.598c0.312-0.023,0.64,0.024,0.963,0.078l0.229,0.042l0.13,0.035l0.26,0.069l0.064,0.017
			c-0.074-0.024,0.173,0.052,0.179,0.057l0.16,0.064l0.319,0.131c0.213,0.091,0.428,0.173,0.636,0.278
			c0.397,0.251,0.83,0.456,1.187,0.773c0.762,0.58,1.37,1.324,1.853,2.096c0.962,1.566,1.341,3.219,1.588,4.781
			c0.231,1.572,0.282,3.097,0.282,4.588c-0.002,2.97-0.258,5.866-0.192,8.535c0.021,1.303,0.207,2.624,0.54,3.27
			c0.043,0.06,0.077,0.128,0.109,0.189c0.039,0.024,0.066,0.054,0.086,0.093c0.028,0.015,0.05,0.008,0.059,0.033
			c0.008,0.009-0.061-0.064-0.111-0.045c-0.012,0.001-0.032,0.005-0.037,0.011l0.132,0.028l0.263,0.056l0.131,0.028l0.066,0.014
			c0.23,0.043-0.241-0.042-0.169-0.032l0.255,0.027c0.345,0.038,0.669,0.067,0.983,0.088c0.624,0.043,1.188,0.037,1.588-0.041
			c0.41-0.081,0.608-0.195,0.794-0.36c0.184-0.169,0.396-0.457,0.587-0.895c0.045-0.1,0.071-0.199,0.113-0.296l0.06-0.145
			l0.075-0.257l0.149-0.517c0.03-0.103-0.02,0.067-0.011,0.031l0.011-0.054l0.022-0.107l0.045-0.215
			c0.487-2.285,0.195-4.735-0.508-7.313c-0.349-1.297-0.788-2.618-1.216-4.066c-0.396-1.459-0.905-3.011-0.791-5.148
			c0.065-1.052,0.409-2.298,1.118-3.317c0.181-0.241,0.367-0.482,0.562-0.71c0.202-0.206,0.409-0.408,0.62-0.604
			c0.238-0.194,0.491-0.382,0.745-0.561c0.243-0.168,0.332-0.207,0.505-0.316c0.536-0.309,0.9-0.483,1.436-0.681
			c0.496-0.188,1.06-0.328,1.66-0.397c1.203-0.154,2.619,0.124,3.693,0.751c1.089,0.618,1.848,1.441,2.421,2.232
			c0.573,0.8,0.982,1.602,1.325,2.392c0.676,1.583,1.081,3.135,1.383,4.681c0.299,1.549,0.476,3.085,0.551,4.664
			c0.066,1.678-0.024,3.053-0.065,4.526c-0.097,2.898-0.32,5.744-0.32,8.474c-0.015,2.705,0.205,5.4,1.044,7.344
			c0.109,0.193,0.147,0.341,0.282,0.589l0.5,0.763l1.328,1.853l1.232,1.897l1.144,1.929c2.926,5.183,5.037,10.579,7.832,15.24
			c0.691,1.165,1.463,2.255,2.248,3.281l0.586,0.695l0.29,0.352l0.381,0.379l1.477,1.47l3.143,3.109l0.784,0.777l0.722,0.832
			l1.439,1.665c3.916,4.376,7.163,9.248,10.278,14.153c2.917,5.03,5.655,10.155,7.859,15.514l1.68,4.001l1.459,4.085
			c1.044,2.696,1.803,5.488,2.631,8.252c0.197,0.694,0.428,1.378,0.597,2.079l0.494,2.108l0.988,4.211
			c0.324,1.404,0.527,2.835,0.796,4.25c0.234,1.422,0.551,2.829,0.716,4.262l0.487,4.294l0.243,2.146l0.104,2.158l0.205,4.314
			c0.087,1.437-0.025,2.879-0.028,4.317c0.016,5.767-0.887,11.515-2.03,17.11L400.643,311.389z"/>
	</g>
	<circle cx="324.237" cy="153.477" r="4.789"/>
	<circle cx="340.325" cy="155.216" r="6.094"/>
	<circle fill="#FFFFFF" cx="324.237" cy="151.913" r="1.564"/>
	<circle fill="#FFFFFF" cx="339.146" cy="152.728" r="2.155"/>
</g>
<g>
	<g id="path3586_1_">
		<path fill="#C49214" d="M274.351,256.479c-2.417,1.321-6.701,2.093-8.737,0.898l-30.002-51.524
			c-0.338-1.292,0.729-7.782,3.554-8.863l59.685-0.04c1.461,0.309,6.518,3.821,5.76,8.85L274.351,256.479z"/>
		<path fill="#C49214" d="M268.374,258.096c-1.169,0-2.146-0.211-2.825-0.609c-0.019-0.012-0.034-0.027-0.045-0.046l-30.002-51.524
			c-0.006-0.01-0.01-0.021-0.013-0.032c-0.343-1.316,0.701-7.891,3.631-9.012c0.015-0.006,0.03-0.009,0.045-0.009l59.685-0.04
			c1.46,0.306,6.666,3.812,5.884,8.995c-0.003,0.016-0.008,0.032-0.016,0.045l-30.259,50.68c-0.013,0.02-0.028,0.036-0.049,0.046
			C272.763,257.49,270.336,258.096,268.374,258.096z M265.705,257.285c0.64,0.365,1.562,0.559,2.669,0.559
			c1.912,0,4.271-0.586,5.887-1.459l30.228-50.628c0.737-5.007-4.28-8.391-5.664-8.684l-59.635,0.042
			c-2.724,1.074-3.77,7.418-3.461,8.689L265.705,257.285z"/>
	</g>
	<g>
		<path fill="#F6F188" d="M303.607,204.469c-0.882-0.515-2.024-0.422-3.218,0.26l-24.274,13.891
			c-1.139,0.652-2.206,1.777-3.006,3.168c-0.773,1.344-1.203,2.785-1.211,4.056l-0.16,27.968c-0.007,1.374,0.475,2.414,1.356,2.93
			c0.882,0.515,2.024,0.422,3.218-0.261l24.273-13.892c1.139-0.651,2.207-1.776,3.007-3.167c0.773-1.346,1.203-2.787,1.21-4.058
			l0.161-27.967C304.971,206.024,304.489,204.983,303.607,204.469z"/>
		<path fill="#F6F188" d="M266.219,222.459c-0.771-1.317-1.793-2.387-2.875-3.014l-23.813-13.78
			c-1.17-0.677-2.293-0.773-3.163-0.271c-0.871,0.502-1.35,1.523-1.349,2.875l0.024,27.513c0.002,1.291,0.441,2.752,1.239,4.114
			c0.771,1.317,1.792,2.387,2.875,3.013l23.812,13.781c1.171,0.678,2.294,0.772,3.164,0.271c0.869-0.502,1.349-1.524,1.348-2.876
			l-0.024-27.513C267.455,225.282,267.016,223.821,266.219,222.459z"/>
		<path fill="#F6F188" d="M299.828,202.644c1.279-0.726,1.988-1.728,1.996-2.822c0.008-1.093-0.688-2.104-1.958-2.848
			l-25.845-15.118c-1.213-0.709-2.826-1.101-4.544-1.101c-1.661,0-3.228,0.37-4.411,1.041l-26.043,14.772
			c-1.279,0.726-1.988,1.728-1.996,2.821c-0.007,1.094,0.688,2.105,1.959,2.849l25.844,15.118c1.213,0.71,2.826,1.101,4.544,1.101
			c1.661,0,3.228-0.369,4.411-1.041L299.828,202.644z"/>
	</g>
	<g>
		<path fill="#C49214" d="M287.078,224.893c-2.065,1.176-3.761,4.067-3.778,6.445c-0.008,0.972,0.258,1.758,0.769,2.271
			c0.396,0.399,0.92,0.61,1.517,0.61c0.55,0,1.136-0.175,1.742-0.521c2.065-1.177,3.761-4.068,3.778-6.445
			c0.008-0.973-0.258-1.758-0.768-2.272C289.576,224.214,288.342,224.172,287.078,224.893z"/>
		<path fill="#C49214" d="M252.943,197.163c-1.016-0.594-2.361-0.921-3.791-0.921c-1.383,0-2.689,0.309-3.681,0.871
			c-1.061,0.603-1.649,1.428-1.655,2.324c-0.005,0.896,0.57,1.729,1.624,2.345c1.016,0.594,2.362,0.921,3.792,0.921
			c1.383,0,2.689-0.31,3.68-0.871c1.062-0.603,1.649-1.428,1.655-2.324S253.996,197.779,252.943,197.163z"/>
		<path fill="#C49214" d="M273.1,208.954c-1.016-0.594-2.361-0.921-3.791-0.921c-1.383,0-2.689,0.31-3.68,0.871
			c-1.062,0.602-1.65,1.427-1.656,2.324c-0.005,0.896,0.57,1.729,1.624,2.345c1.016,0.594,2.362,0.921,3.791,0.921
			c1.383,0,2.69-0.31,3.68-0.871c1.062-0.603,1.649-1.428,1.655-2.324C274.729,210.403,274.152,209.57,273.1,208.954z"/>
		<path fill="#C49214" d="M293.411,197.432c-1.016-0.594-2.362-0.921-3.792-0.921c-1.382,0-2.689,0.31-3.68,0.871
			c-1.062,0.603-1.649,1.427-1.655,2.323s0.57,1.729,1.624,2.345c1.016,0.594,2.361,0.921,3.791,0.921
			c1.383,0,2.689-0.31,3.68-0.871c1.062-0.602,1.65-1.427,1.656-2.323C295.041,198.881,294.464,198.048,293.411,197.432z"/>
		<path fill="#C49214" d="M273.177,197.297c-1.016-0.594-2.361-0.921-3.791-0.921c-1.383,0-2.689,0.31-3.68,0.871
			c-1.062,0.602-1.649,1.427-1.655,2.323c-0.007,0.896,0.57,1.729,1.624,2.345c1.015,0.594,2.361,0.921,3.79,0.921
			c1.384,0,2.69-0.31,3.682-0.872c1.061-0.602,1.649-1.427,1.654-2.323C274.807,198.747,274.23,197.914,273.177,197.297z"/>
		<path fill="#C49214" d="M273.254,185.641c-1.014-0.594-2.36-0.921-3.79-0.921c-1.383,0-2.69,0.31-3.681,0.871
			c-1.062,0.602-1.648,1.427-1.655,2.324c-0.006,0.896,0.57,1.729,1.624,2.345c1.016,0.594,2.361,0.921,3.791,0.921
			c1.383,0,2.69-0.309,3.68-0.871c1.062-0.602,1.65-1.427,1.656-2.323C274.885,187.09,274.308,186.257,273.254,185.641z"/>
		<path fill="#C49214" d="M261.547,242.511c-0.613-0.361-1.209-0.544-1.769-0.544c-1.381,0-2.28,1.119-2.29,2.852
			c-0.013,2.377,1.644,5.291,3.693,6.495c0.614,0.36,1.21,0.544,1.769,0.544c1.381,0,2.28-1.119,2.289-2.851
			C265.254,246.629,263.597,243.715,261.547,242.511z"/>
		<path fill="#C49214" d="M262.115,221.769c-0.614-0.361-1.209-0.544-1.769-0.544c-1.381,0-2.28,1.119-2.289,2.852
			c-0.015,2.377,1.643,5.291,3.692,6.495c0.614,0.361,1.209,0.544,1.768,0.544c1.382,0,2.28-1.12,2.29-2.852
			C265.821,225.887,264.165,222.973,262.115,221.769z"/>
		<path fill="#C49214" d="M243.286,210.375c-0.614-0.361-1.209-0.544-1.769-0.544c-1.381,0-2.279,1.119-2.29,2.851
			c-0.014,2.377,1.644,5.292,3.692,6.495c0.615,0.361,1.21,0.544,1.77,0.544c1.381,0,2.279-1.12,2.289-2.852
			C246.993,214.492,245.336,211.579,243.286,210.375z"/>
		<path fill="#C49214" d="M242.719,231.117c-0.615-0.361-1.21-0.544-1.77-0.544c-1.381,0-2.279,1.119-2.289,2.851
			c-0.014,2.377,1.643,5.291,3.692,6.495c0.614,0.361,1.21,0.544,1.769,0.544c1.382,0,2.28-1.119,2.29-2.851
			C246.425,235.234,244.769,232.32,242.719,231.117z"/>
	</g>
</g>
<g>
	<path fill="#3F3E22" d="M416.188,158.182c-1.718-0.08-3.344-0.951-4.526-2.248c-0.047,0.064-0.094,0.13-0.141,0.192
		c-2.168-1.37-4.325-2.748-6.47-4.134c-1.218,0.09-2.481-0.187-3.68-0.917c-1.198-0.73-2.134-1.922-2.663-3.269
		c-1.604-1.081-3.196-2.169-4.764-3.276l-2.419,4.067c-5.181,8.368-15.149,19.302-9.052,29.07
		c5.98,9.577,17.289,10.233,24.465,3.585c5.454-5.052,9.316-13.36,13.736-19.356c-1.644-1.041-3.291-2.076-4.938-3.112
		C415.89,158.587,416.039,158.383,416.188,158.182z"/>
	<path fill="#6B6847" d="M415.855,158.327l-0.333-0.002l-0.685-0.083c-0.445-0.087-0.885-0.212-1.315-0.378
		c-0.425-0.176-0.836-0.387-1.233-0.632c-0.388-0.257-0.752-0.549-1.1-0.867l0.988-0.053l-0.13,0.211l-0.292,0.472l-0.587-0.312
		l-3.404-1.808l-3.38-1.851l0.757,0.193l-0.612,0.036c-0.205,0.004-0.413,0.035-0.618,0.012c-0.406-0.049-0.832-0.056-1.231-0.16
		c-0.394-0.115-0.819-0.183-1.187-0.366l-0.563-0.256l-0.282-0.132l-0.332-0.214l-0.425-0.281c-0.143-0.098-0.271-0.165-0.455-0.344
		l-0.508-0.476c-0.155-0.161-0.359-0.33-0.467-0.493c-0.249-0.332-0.513-0.66-0.741-1.009l-0.592-1.105l0.631,0.787
		c-1.658-1.009-3.312-2.029-4.948-3.078l2.826-0.601l-1.335,2.453l-0.667,1.227l-0.167,0.307l-0.084,0.153l-0.122,0.208
		l-0.354,0.602c-0.462,0.795-0.963,1.621-1.479,2.43l-1.515,2.353c-1.999,3.097-3.883,6.197-5.208,9.331
		c-0.365,0.78-0.597,1.568-0.869,2.351c-0.129,0.392-0.189,0.782-0.291,1.172c-0.104,0.391-0.188,0.779-0.212,1.162
		c-0.275,1.552-0.099,3.023,0.274,4.417c0.123,0.342,0.235,0.686,0.337,1.036c0.151,0.334,0.339,0.657,0.5,0.99l0.247,0.499
		l0.015,0.032c-0.03-0.046,0.081,0.125-0.067-0.1l0.013,0.018l0.049,0.072l0.099,0.144l0.198,0.288l0.79,1.15
		c0.91,1.094,2.041,2.271,3.336,3.14c1.304,0.851,2.731,1.466,4.227,1.868c1.5,0.397,3.085,0.44,4.641,0.255
		c1.561-0.189,3.104-0.662,4.527-1.411c0.374-0.152,0.711-0.375,1.057-0.585c0.344-0.213,0.705-0.404,1.016-0.669l0.487-0.372
		l0.244-0.185l0.123-0.093l0.062-0.046c-0.028,0.029,0.086-0.081-0.061,0.062l0.016-0.015l0.031-0.03l1.01-0.964l1.007-0.965
		l0.841-0.961l0.85-0.961l0.846-1.049c1.146-1.389,2.213-2.886,3.289-4.386c1.055-1.515,2.151-3.03,3.249-4.548l1.686-2.265
		l1.8-2.195l0.203,1.081c-1.567-1.161-3.113-2.355-4.654-3.559l-0.206-0.161l0.149-0.163L415.855,158.327z M416.462,158.062
		l-0.606,0.813l-0.038-0.218l4.946,3.1l0.145,0.09l-0.101,0.145l-1.586,2.287l-1.505,2.345l-2.945,4.742
		c-1,1.571-1.994,3.148-3.099,4.655c-0.273,0.378-0.535,0.765-0.818,1.137l-0.886,1.094l-0.886,1.094l-0.968,1.005l-0.969,1.004
		c-0.366,0.328-0.724,0.613-1.086,0.921c-0.348,0.319-0.753,0.564-1.142,0.831c-0.391,0.264-0.775,0.538-1.203,0.741
		c-1.635,0.942-3.458,1.552-5.322,1.839c-1.862,0.28-3.788,0.278-5.637-0.147c-1.847-0.417-3.607-1.172-5.203-2.191
		c-1.584-1.046-2.938-2.38-4.148-3.854l-0.802-1.142c-0.135-0.198-0.265-0.363-0.403-0.589l-0.331-0.631
		c-0.216-0.423-0.452-0.838-0.649-1.269l-0.447-1.357c-0.483-1.832-0.645-3.779-0.3-5.644c0.282-1.87,0.859-3.683,1.631-5.392
		c0.731-1.731,1.664-3.358,2.617-4.964c0.975-1.593,2.003-3.149,3.053-4.687c1.044-1.544,2.105-3.061,3.104-4.63
		c0.994-1.556,1.921-3.182,2.884-4.77l0.119-0.195l0.188,0.13l4.752,3.285l0.045,0.031l0.029,0.062l0.428,0.892
		c0.169,0.282,0.367,0.546,0.549,0.821c0.083,0.146,0.215,0.243,0.319,0.367l0.332,0.354c0.218,0.239,0.528,0.416,0.788,0.626
		c0.135,0.114,0.251,0.169,0.412,0.25l0.439,0.226c0.287,0.166,0.618,0.222,0.924,0.34c0.312,0.105,0.646,0.119,0.968,0.184
		c0.161,0.03,0.327,0.009,0.491,0.017l0.493,0.003l0.067,0l0.044,0.028l6.458,4.148l-0.214,0.039l0.139-0.189l0.115-0.156
		l0.133,0.143c0.29,0.309,0.599,0.597,0.93,0.86c0.338,0.254,0.693,0.482,1.067,0.681c0.378,0.188,0.77,0.343,1.175,0.463
		l0.607,0.136L416.462,158.062z"/>
</g>
<g>
	<g>
		<path fill="#F7F732" d="M134.221,312.923c-8.205-34.944,9.335-80.825,34.404-102.622c6.957-6.049,9.476-17.345,16.523-26.525
			c3.496-4.554,2.175-12.927,2.002-21.755c-0.094-4.85,1.723-16.339,8.218-12.914c6.552,3.457-2.221,11.536,0.293,20.872
			c1.229,4.566,3.91,4.412,7.286,3.976c7.205-0.932-2.466-22.086,7.205-25.476c5.652-1.981,3.185,10.281,2.642,14.76
			c-0.625,5.148,0.058,9.024,1.489,12.61c1.475,2.079,7.284,10.496,7.531,11.503c4.803,19.536-14.097,29.062-27.51,38.025
			c-17.426,11.644-24.67,46.707-19.865,66.496c11.096,45.705,43.128,72.033,79.413,78.564c21.742,3.914,53.102,17.402,52.052,28.028
			s-27.287-10.753-57.704-10.753C214.143,387.715,151.784,387.721,134.221,312.923z"/>
		<path fill="#F8E617" d="M133.922,312.979c-1.144-5.596-2.046-11.344-2.03-17.109c-0.003-1.439-0.115-2.881-0.028-4.318
			l0.205-4.314l0.104-2.158l0.243-2.146l0.487-4.294c0.165-1.433,0.481-2.84,0.716-4.262c0.269-1.416,0.472-2.847,0.796-4.25
			l0.988-4.212l0.494-2.108c0.169-0.701,0.399-1.385,0.597-2.078c0.828-2.765,1.587-5.557,2.631-8.253l1.459-4.085l1.68-4.001
			c2.204-5.358,4.943-10.483,7.86-15.514c3.114-4.905,6.362-9.777,10.278-14.153l1.439-1.665l0.721-0.832l0.784-0.777l3.144-3.109
			l1.477-1.47l0.381-0.379l0.29-0.352l0.585-0.696c0.785-1.026,1.557-2.116,2.249-3.281c2.794-4.661,4.905-10.058,7.831-15.24
			l1.144-1.929l1.232-1.896l1.328-1.853l0.5-0.763c0.135-0.248,0.172-0.396,0.281-0.589c0.84-1.944,1.059-4.64,1.044-7.344
			c0-2.73-0.224-5.576-0.319-8.475c-0.041-1.472-0.132-2.848-0.065-4.526c0.075-1.578,0.253-3.115,0.552-4.663
			c0.302-1.547,0.706-3.098,1.383-4.681c0.343-0.791,0.752-1.592,1.325-2.392c0.573-0.791,1.332-1.614,2.421-2.232
			c1.074-0.628,2.49-0.905,3.693-0.752c0.601,0.069,1.163,0.209,1.66,0.397c0.535,0.198,0.898,0.371,1.436,0.681
			c0.174,0.109,0.262,0.148,0.505,0.316c0.254,0.179,0.507,0.367,0.745,0.561c0.211,0.196,0.419,0.398,0.62,0.604
			c0.194,0.228,0.381,0.469,0.562,0.71c0.709,1.02,1.052,2.266,1.118,3.317c0.113,2.137-0.396,3.688-0.792,5.148
			c-0.428,1.448-0.867,2.77-1.216,4.066c-0.702,2.578-0.995,5.028-0.507,7.313l0.045,0.215l0.022,0.107l0.011,0.054
			c0.008,0.036-0.041-0.132-0.011-0.03l0.149,0.517l0.075,0.256l0.06,0.145c0.042,0.097,0.068,0.197,0.113,0.296
			c0.19,0.438,0.403,0.726,0.587,0.895c0.185,0.165,0.384,0.278,0.793,0.359c0.401,0.078,0.965,0.083,1.589,0.041l0.983-0.087
			l0.255-0.027c0.072-0.011-0.4,0.075-0.169,0.032l0.065-0.014l0.132-0.028l0.263-0.057l0.132-0.028
			c-0.007-0.006-0.026-0.01-0.039-0.011c-0.05-0.02-0.118,0.054-0.109,0.044c0.008-0.025,0.03-0.018,0.058-0.033
			c0.02-0.04,0.047-0.069,0.087-0.093c0.031-0.061,0.065-0.13,0.108-0.189c0.333-0.647,0.52-1.967,0.541-3.27
			c0.064-2.669-0.191-5.565-0.193-8.535c0-1.491,0.051-3.016,0.282-4.588c0.247-1.562,0.626-3.215,1.588-4.781
			c0.482-0.772,1.092-1.516,1.853-2.096c0.356-0.317,0.789-0.522,1.188-0.773c0.208-0.104,0.423-0.187,0.635-0.278l0.32-0.131
			l0.16-0.064c0.005-0.005,0.253-0.082,0.178-0.057l0.065-0.017l0.26-0.069l0.13-0.035l0.228-0.042
			c0.323-0.053,0.651-0.101,0.964-0.078c0.611-0.007,1.36,0.21,1.941,0.598c0.616,0.392,0.978,0.916,1.271,1.398
			c0.256,0.481,0.438,0.956,0.547,1.393c0.438,1.764,0.385,3.293,0.319,4.81c-0.086,1.508-0.266,2.972-0.475,4.417l-0.658,4.247
			l-0.171,2.052l-0.088,1.072c-0.012,0.177-0.035,0.361-0.037,0.532l0.026,0.491c-0.009,2.607,0.54,5.314,1.442,7.879l-0.144-0.265
			c1.552,2.307,3.086,4.594,4.601,6.919c0.754,1.17,1.503,2.316,2.224,3.56l0.271,0.463c0.095,0.17,0.204,0.418,0.298,0.627
			l0.139,0.33c0.072,0.19,0.05,0.198,0.079,0.306l0.102,0.507l0.203,1.014c0.06,0.349,0.101,0.722,0.151,1.082
			c0.865,5.738-0.704,11.737-3.97,16.417c-3.242,4.73-7.68,8.318-12.169,11.567c-4.494,3.264-9.31,6.068-13.72,9.225
			c-4.208,3.219-7.472,7.705-10.044,12.429c-2.59,4.753-4.489,9.886-5.881,15.134c-1.411,5.247-2.31,10.631-2.745,16.032
			c-0.429,5.398-0.364,10.847,0.435,16.128c0.194,1.319,0.449,2.626,0.764,3.907l0.113,0.481c0.014,0.054,0.051,0.219,0.044,0.183
			l0.074,0.248l0.293,0.991l0.587,1.982c0.786,2.64,1.513,5.329,2.522,7.798c0.952,2.518,1.806,5.057,3.007,7.497l1.678,3.692
			l0.418,0.923l0.484,0.89l0.963,1.781c5.024,9.551,11.52,18.293,19.282,25.694c7.733,7.435,16.803,13.407,26.577,17.735
			c1.231,0.52,2.423,1.135,3.686,1.578l3.773,1.361l1.887,0.678l1.931,0.545l3.858,1.092c1.287,0.359,2.612,0.57,3.916,0.863
			c1.334,0.27,2.561,0.555,3.98,0.815c1.327,0.237,2.781,0.534,4.158,0.839c1.382,0.304,2.753,0.637,4.121,0.982
			c5.465,1.4,10.825,3.123,16.096,5.127c5.271,2.007,10.435,4.344,15.418,7.216c2.488,1.448,4.936,3.022,7.271,4.925
			c2.29,1.953,4.65,4.071,6.209,7.555c0.168,0.463,0.328,0.932,0.476,1.402c0.104,0.515,0.196,1.035,0.27,1.555l0.01,0.827
			l-0.006,0.413l-0.006,0.207c0.012-0.068-0.024,0.33-0.028,0.329l-0.036,0.257c-0.019,0.109-0.009,0.11-0.055,0.331
			c-0.074,0.347-0.154,0.723-0.271,1.023c-0.193,0.61-0.569,1.306-1.062,1.917c-0.519,0.621-1.18,1.125-1.854,1.467
			c-1.351,0.648-2.529,0.723-3.503,0.727c-1.946-0.045-3.438-0.438-4.903-0.836c-1.448-0.412-2.808-0.881-4.146-1.361
			c-5.31-1.95-10.326-4.043-15.452-5.83c-5.106-1.8-10.263-3.34-15.487-4.403c-2.611-0.528-5.236-0.944-7.866-1.231
			c-1.315-0.146-2.633-0.242-3.949-0.309c-1.31-0.073-2.627-0.074-4.029-0.094c-5.522-0.068-11.092-0.154-16.659-0.537
			c-5.566-0.367-11.141-0.914-16.672-1.812c-5.529-0.91-11.019-2.129-16.394-3.752c-10.746-3.226-21.03-8.241-29.83-15.175
			c-8.883-6.849-15.995-15.712-21.429-25.36c-5.357-9.721-9.086-20.241-11.601-30.994l-0.001-0.003L133.922,312.979z
			 M134.519,312.859l1.062,3.98c0.368,1.324,0.671,2.669,1.126,3.967c0.858,2.612,1.633,5.253,2.683,7.795
			c1.867,5.172,4.365,10.09,7.101,14.831c5.576,9.425,12.962,17.794,21.861,24.048c8.863,6.303,18.98,10.635,29.486,13.242
			c5.256,1.312,10.608,2.23,15.999,2.85c5.39,0.631,10.816,1.002,16.264,1.152c5.449,0.146,10.911,0.141,16.415,0.08
			c1.354-0.01,2.795-0.041,4.24,0.006c1.438,0.041,2.873,0.112,4.302,0.238c2.859,0.234,5.693,0.647,8.489,1.192
			c5.596,1.08,11.047,2.655,16.355,4.466c5.308,1.793,10.498,3.893,15.559,5.691c1.261,0.439,2.515,0.854,3.722,1.184
			c1.188,0.321,2.404,0.58,3.222,0.586c0.397,0.014,0.626-0.08,0.523-0.033c-0.147,0.033-0.376,0.383-0.321,0.308
			c0.018-0.019-0.013,0.015,0.004,0.028c0.002,0.055,0.021-0.117,0.031-0.178l0.036-0.256c0.014-0.086-0.033,0.227-0.018,0.072
			l-0.004-0.053l-0.004-0.104c0-0.068,0.005-0.137,0.015-0.207c-0.042-0.158-0.071-0.317-0.084-0.481
			c-0.072-0.183-0.138-0.366-0.191-0.554c-0.676-1.608-2.403-3.447-4.309-5.01c-1.939-1.586-4.137-3.016-6.41-4.342
			c-4.57-2.639-9.479-4.875-14.479-6.871c-5.012-1.978-10.146-3.697-15.348-5.098c-1.301-0.346-2.604-0.68-3.912-0.984
			c-1.312-0.305-2.555-0.578-3.938-0.845c-1.288-0.253-2.747-0.599-4.11-0.895c-1.382-0.327-2.783-0.573-4.147-0.969l-4.085-1.21
			l-2.041-0.605l-1.997-0.742l-3.988-1.496c-1.332-0.49-2.595-1.153-3.895-1.723c-10.302-4.742-19.911-11.138-27.886-19.207
			c-8.033-7.994-14.648-17.331-19.672-27.398l-0.953-1.884l-0.472-0.943l-0.405-0.974l-1.619-3.893
			c-1.152-2.555-1.979-5.275-2.887-7.949c-0.98-2.682-1.603-5.346-2.305-8.014l-0.521-2.002l-0.262-1l-0.064-0.25
			c-0.053-0.203-0.046-0.208-0.071-0.321l-0.107-0.528c-0.297-1.406-0.523-2.819-0.686-4.232
			c-0.653-5.652-0.564-11.307,0.039-16.881c0.608-5.573,1.691-11.084,3.298-16.445c1.597-5.36,3.694-10.585,6.438-15.489
			c2.759-4.885,6.212-9.459,10.806-12.947c2.277-1.673,4.628-3.075,6.938-4.588c2.314-1.49,4.616-2.983,6.841-4.569
			c2.229-1.578,4.379-3.258,6.357-5.101c1.989-1.831,3.797-3.84,5.288-6.045c1.465-2.212,2.629-4.627,3.201-7.193
			c0.336-1.272,0.429-2.59,0.506-3.897c0.001-1.307-0.046-2.648-0.265-3.919c-0.053-0.321-0.09-0.634-0.152-0.963l-0.226-1.009
			l-0.112-0.505l-0.028-0.126c-0.015-0.078-0.009-0.041-0.027-0.064l-0.084-0.137l-0.159-0.299l-0.261-0.424
			c-0.686-1.127-1.469-2.276-2.232-3.406c-1.541-2.265-3.123-4.527-4.741-6.731l-0.101-0.138l-0.043-0.127
			c-0.482-1.426-1.092-2.817-1.337-4.325l-0.24-1.114l-0.119-0.558l-0.051-0.579l-0.18-2.323c-0.099-0.806,0.019-1.465,0.027-2.198
			l0.112-2.24l0.509-4.277c0.152-1.4,0.271-2.791,0.301-4.149c0.026-1.339-0.036-2.719-0.343-3.734
			c-0.069-0.257-0.17-0.447-0.252-0.598c-0.089-0.115-0.152-0.202-0.163-0.176c-0.021,0.011,0.017-0.007-0.091,0.009
			c-0.048-0.011-0.073,0.017-0.105,0.01c-0.014,0.001-0.005-0.009-0.037,0l-0.129,0.039l-0.257,0.079l-0.62,0.291
			c-0.19,0.155-0.428,0.246-0.593,0.426c-0.374,0.302-0.67,0.7-0.933,1.148c-0.526,0.902-0.8,2.114-0.947,3.376
			c-0.145,1.273-0.15,2.624-0.103,3.999c0.09,2.766,0.448,5.586,0.486,8.656c-0.023,1.544,0.003,3.168-0.832,5.158
			c-0.13,0.254-0.26,0.505-0.408,0.753c-0.186,0.254-0.383,0.504-0.589,0.744c-0.229,0.232-0.503,0.448-0.769,0.652
			c-0.277,0.205-0.695,0.391-1.061,0.54l-0.281,0.104l-0.131,0.033l-0.261,0.065l-0.131,0.032l-0.064,0.017
			c0.188-0.032-0.329,0.062-0.302,0.056l-0.278,0.039c-0.366,0.053-0.756,0.102-1.155,0.143c-0.802,0.077-1.684,0.135-2.702-0.007
			c-1.006-0.131-2.189-0.56-3.107-1.317c-1.848-1.536-2.42-3.537-2.822-5.052c-0.857-3.334-0.386-6.758,0.351-9.699
			c0.369-1.48,0.81-2.891,1.169-4.2c0.358-1.291,0.619-2.566,0.531-3.309c-0.04-0.374-0.116-0.552-0.231-0.713
			c-0.045-0.038-0.077-0.081-0.111-0.129c-0.057-0.043-0.107-0.09-0.155-0.142c-0.045-0.025-0.081-0.049-0.113-0.086
			c-0.046-0.043-0.28-0.167-0.411-0.246c-0.082-0.045-0.371-0.186-0.511-0.223c-0.175-0.064-0.314-0.091-0.425-0.104
			c-0.221-0.014-0.276,0.005-0.447,0.09c-0.348,0.15-1.006,1.005-1.429,2.062c-0.45,1.057-0.784,2.294-1.022,3.562
			c-0.241,1.268-0.388,2.589-0.443,3.875c-0.051,1.188,0.033,2.681,0.082,4.073c0.124,2.832,0.282,5.715,0.258,8.722
			c-0.009,1.499-0.085,3.042-0.302,4.629c-0.226,1.591-0.573,3.22-1.333,4.899c-0.222,0.442-0.48,0.95-0.706,1.32l-0.702,1.021
			l-1.198,1.629l-1.133,1.697l-1.079,1.754c-2.871,4.724-5.102,10.016-8.347,15.124c-0.813,1.277-1.723,2.516-2.749,3.713
			l-0.846,0.91l-0.425,0.451l-0.398,0.362l-1.644,1.492l-3.105,2.805l-0.778,0.702l-0.723,0.763l-1.445,1.527
			c-3.934,4.006-7.286,8.573-10.532,13.2c-3.048,4.763-5.978,9.639-8.389,14.79l-1.838,3.85l-1.611,3.953
			c-1.134,2.616-1.987,5.334-2.913,8.032c-0.222,0.676-0.477,1.344-0.671,2.029l-0.569,2.061l-1.138,4.126
			c-0.355,1.382-0.591,2.79-0.892,4.185c-0.267,1.401-0.616,2.79-0.814,4.203l-0.589,4.241l-0.295,2.122l-0.155,2.136l-0.288,4.275
			c-0.097,1.426,0.005,2.854-0.003,4.282C132.569,301.576,133.412,307.222,134.519,312.859z"/>
	</g>
	<circle cx="210.33" cy="155.077" r="4.789"/>
	<circle cx="194.241" cy="156.816" r="6.093"/>
	<circle fill="#FFFFFF" cx="210.33" cy="153.513" r="1.564"/>
	<circle fill="#FFFFFF" cx="195.419" cy="154.328" r="2.155"/>
</g>
<g>
	<g>
		<path d="M194.941,92.263c0.358,1.748,0.926,3.755,1.701,6.021c-0.073,0.198-0.11,0.296-0.183,0.494
			c-4.409,1.947-7.919,3.774-10.572,5.291c-1.857,1.062-3.678,2.278-5.445,3.646c-0.383-0.815-0.573-1.222-0.954-2.039
			c0.854-0.689,1.347-1.298,1.473-1.842s-0.06-1.235-0.562-2.074c-2.599-4.367-3.898-6.551-6.494-10.919
			c-0.377-0.629-0.699-1-0.965-1.112c-0.267-0.112-0.645-0.021-1.132,0.276c-0.316,0.193-0.683,0.443-1.097,0.751
			c-0.15-0.048-0.225-0.072-0.376-0.119c-0.306-0.752-0.457-1.129-0.761-1.883c0.295-0.183,0.442-0.273,0.738-0.454
			c1.783-1.015,3.795-2.169,6.048-3.438c5.58-3.141,9.43-5.125,11.404-6.357c0.187,0.074,0.279,0.111,0.465,0.186
			c0.146,0.841,0.38,1.812,0.703,2.915c0.322,1.103,0.662,2.085,1.016,2.951c-1.294,0.708-1.938,1.07-3.219,1.805
			c-0.211-0.491-0.316-0.737-0.526-1.228c-0.3-0.596-0.618-0.966-0.954-1.106c-0.338-0.141-0.851-0.093-1.534,0.147
			c-0.685,0.24-1.777,0.75-3.268,1.556c-0.647,0.35-1.082,0.615-1.308,0.79c-0.226,0.175-0.344,0.355-0.354,0.539
			c-0.012,0.184,0.058,0.439,0.206,0.763c0.915,1.887,1.374,2.83,2.294,4.714c1.352-0.74,2.03-1.102,3.394-1.811
			c0.505-0.268,1.125-0.626,1.861-1.068c0.736-0.442,1.474-0.896,2.213-1.364c0.171,0.049,0.256,0.073,0.426,0.123
			c0.299,1.117,0.45,1.676,0.755,2.791c-0.311,0.155-0.566,0.26-0.732,0.33c-1.645,0.688-3.018,1.481-3.986,2.002
			c-0.733,0.394-1.61,0.947-2.623,1.667c0.903,1.68,1.355,2.521,2.26,4.2c0.305,0.543,0.572,0.901,0.804,1.077
			c0.232,0.176,0.512,0.225,0.837,0.146c0.325-0.079,0.838-0.312,1.541-0.692c1.497-0.811,2.55-1.448,3.149-1.943
			c0.6-0.496,0.937-1.044,1.008-1.652c0.072-0.608-0.071-1.479-0.429-2.617c1.115-0.657,1.676-0.981,2.803-1.617
			C194.716,92.17,194.791,92.201,194.941,92.263z"/>
		<path d="M201.002,78.237c1.087-0.478,1.809-0.79,2.162-0.948c0.084,0.082,0.127,0.124,0.211,0.206
			c0.171,0.634,0.257,0.951,0.428,1.585c-1.165,0.468-1.659,0.928-1.488,1.362c0.098,0.249,0.438,0.534,1.013,0.858
			c0.576,0.325,2.756,1.668,2.954,1.584c0.073-0.031,0.337-0.923,0.65-1.7c0.075-0.186,0.208-0.544,0.409-1.055
			s0.343-0.915,0.423-1.215c0.079-0.3,0.097-0.513,0.053-0.638c-0.067-0.189-0.23-0.284-0.491-0.285s-0.669,0.074-1.222,0.229
			c-0.049-0.039-0.073-0.058-0.123-0.097c-0.152-0.655-0.229-0.982-0.38-1.636c0.724-0.265,1.325-0.468,1.799-0.612
			c1.031-0.351,1.548-0.521,2.583-0.855c0.859-0.29,1.639-0.557,2.338-0.805c0.698-0.248,1.166-0.406,1.402-0.48
			c0.071,0.062,0.105,0.092,0.177,0.154c0.128,0.687,0.193,1.03,0.323,1.716c-0.866,0.598-1.514,1.169-1.947,1.709
			c-0.436,0.541-0.883,1.31-1.334,2.309c-0.813,1.897-1.205,2.848-1.956,4.751c1.921,1.049,2.868,1.586,4.732,2.687
			c0.817,0.498,1.577,0.813,2.286,0.944c0.707,0.131,1.461,0.082,2.263-0.146c0.041,0.029,0.061,0.043,0.102,0.073
			c0.136,0.74,0.204,1.11,0.342,1.85c-0.286,0.09-0.818,0.245-1.597,0.474c-0.777,0.229-1.533,0.468-2.267,0.717
			c-0.615,0.209-1.552,0.56-2.804,1.07c-1.251,0.51-2.08,0.866-2.493,1.046c-0.099-0.048-0.147-0.072-0.246-0.121
			c-0.176-0.675-0.264-1.012-0.438-1.688c0.512-0.217,0.864-0.414,1.056-0.591c0.189-0.177,0.247-0.37,0.17-0.579
			c-0.076-0.208-0.332-0.423-0.767-0.641c-1.385-0.78-2.085-1.163-3.499-1.915c-0.408,1.104-0.607,1.655-0.994,2.759
			c-0.177,0.526-0.287,0.92-0.333,1.178c-0.047,0.259-0.036,0.47,0.031,0.635c0.185,0.453,0.728,0.506,1.631,0.169
			c0.086,0.052,0.129,0.078,0.216,0.129c0.186,0.672,0.278,1.009,0.466,1.681c-0.311,0.1-0.871,0.288-1.677,0.572
			c-0.807,0.284-1.545,0.57-2.215,0.857c-0.671,0.287-1.334,0.594-1.987,0.92c-0.654,0.327-1.101,0.56-1.343,0.695
			c-0.104-0.084-0.157-0.126-0.262-0.21c-0.208-0.639-0.312-0.958-0.519-1.597c0.897-0.798,1.786-2.448,2.753-4.957
			c0.617-1.738,0.938-2.605,1.607-4.34c-1.826-0.934-2.75-1.39-4.623-2.276c-0.85-0.412-1.629-0.636-2.328-0.669
			c-0.699-0.035-1.516,0.083-2.445,0.357c-0.066-0.028-0.101-0.042-0.167-0.07c-0.213-0.709-0.318-1.064-0.529-1.774
			c2.037-0.905,3.061-1.34,5.117-2.18C198.991,79.118,199.915,78.716,201.002,78.237z"/>
		<path d="M220.647,87.38c0.74-0.335,1.208-0.688,1.401-1.068c0.193-0.379,0.194-0.911,0-1.595c-1.029-3.687-1.543-5.531-2.57-9.218
			c-0.151-0.534-0.324-0.873-0.519-1.014c-0.194-0.141-0.476-0.16-0.841-0.054c-0.449,0.144-0.674,0.217-1.122,0.363
			c-0.12-0.062-0.181-0.093-0.301-0.154c-0.069-0.689-0.104-1.034-0.17-1.724c1.675-0.481,2.515-0.712,4.198-1.152
			c0.872-0.235,1.84-0.507,2.905-0.81s1.819-0.524,2.23-0.634c2.858-0.76,5.165-0.653,6.595,0.067
			c1.43,0.721,2.266,1.792,2.533,3.189c0.196,1.027,0.017,2.056-0.523,3.091c-0.539,1.036-1.325,1.943-2.354,2.732
			c-1.03,0.79-2.188,1.334-3.486,1.643c-1.05,0.25-1.574,0.379-2.621,0.645c0.156,0.676,0.236,1.014,0.393,1.689
			c0.153,0.604,0.304,1.042,0.451,1.313c0.147,0.272,0.332,0.437,0.555,0.496c0.222,0.059,0.54,0.037,0.954-0.065
			c0.51-0.139,0.764-0.207,1.273-0.341c0.06,0.055,0.09,0.082,0.149,0.136c0.049,0.729,0.073,1.093,0.124,1.821
			c-0.313,0.075-0.871,0.196-1.672,0.374c-0.801,0.176-1.562,0.361-2.283,0.551c-0.625,0.165-1.524,0.434-2.694,0.822
			c-1.17,0.388-1.94,0.658-2.314,0.793C220.82,88.519,220.763,88.139,220.647,87.38z M230.079,74.962
			c-0.222-0.998-0.742-1.653-1.568-1.956c-0.825-0.302-2.018-0.272-3.562,0.11c-0.288,0.071-0.465,0.145-0.529,0.218
			c-0.065,0.074-0.089,0.228-0.056,0.444c0.328,2.134,0.748,3.984,1.089,5.434c1.077-0.149,1.615-0.22,2.691-0.353
			C229.834,78.094,230.487,76.808,230.079,74.962z"/>
		<path d="M249.924,81.162c-1.192-1.625-1.801-2.433-3.044-4.038c-0.855,0.108-1.282,0.165-2.137,0.283
			c0.126,1.02,0.189,1.529,0.316,2.548c0.083,0.594,0.191,1.012,0.325,1.251c0.135,0.24,0.352,0.383,0.647,0.433
			c0.297,0.05,0.794,0.04,1.491-0.026c0.067,0.059,0.103,0.088,0.17,0.147c-0.046,0.718-0.069,1.077-0.112,1.794
			c-0.396,0.028-1.089,0.1-2.082,0.227c-0.993,0.127-1.856,0.251-2.59,0.365c-0.782,0.122-1.586,0.274-2.407,0.459
			c-0.821,0.185-1.351,0.315-1.59,0.381c-0.035-0.78-0.052-1.169-0.085-1.95c0.82-0.237,1.349-0.524,1.584-0.868
			c0.233-0.343,0.293-0.877,0.173-1.601c-0.627-3.857-0.939-5.785-1.564-9.643c-0.076-0.46-0.201-0.76-0.374-0.9
			s-0.447-0.179-0.819-0.115c-0.46,0.092-0.689,0.139-1.149,0.234c-0.112-0.075-0.167-0.112-0.279-0.187
			c0.007-0.692,0.011-1.039,0.021-1.731c1.708-0.29,2.563-0.424,4.276-0.673c0.941-0.145,1.948-0.309,3.022-0.489
			s1.836-0.315,2.257-0.378c2.596-0.389,4.762-0.142,6.23,0.508c1.469,0.649,2.25,1.729,2.366,3.214
			c0.08,1.02-0.217,1.979-0.873,2.882c-0.657,0.903-1.639,1.704-2.939,2.418c1.172,1.261,1.748,1.896,2.881,3.176
			c0.673,0.722,1.28,1.241,1.831,1.555c0.552,0.314,1.125,0.45,1.722,0.41c0.112,0.113,0.169,0.169,0.281,0.282
			c-0.064,0.606-0.097,0.909-0.16,1.515c-1.514,0.209-2.269,0.322-3.775,0.566C252.113,83.34,250.921,82.662,249.924,81.162z
			 M249.554,71.375c-0.095-0.884-0.549-1.502-1.368-1.845c-0.82-0.343-2.033-0.421-3.63-0.208c-0.214,0.029-0.35,0.088-0.405,0.173
			c-0.056,0.086-0.083,0.254-0.073,0.498c0.071,1.812,0.231,3.435,0.423,4.822c1.114-0.046,1.672-0.065,2.784-0.093
			C248.949,73.982,249.716,72.879,249.554,71.375z"/>
		<path d="M259.394,80.714c0.842-0.134,1.405-0.366,1.691-0.701c0.285-0.335,0.413-0.891,0.381-1.668
			c-0.144-3.798-0.216-5.698-0.357-9.496c-0.022-0.555-0.104-0.926-0.246-1.108s-0.43-0.265-0.859-0.245
			c-0.386,0.032-0.577,0.047-0.963,0.081c-0.103-0.102-0.154-0.151-0.257-0.253c0.076-0.685,0.115-1.028,0.193-1.713
			c0.434-0.022,1.269-0.055,2.505-0.081c1.234-0.026,2.559-0.053,3.971-0.077c4.805-0.082,8.227-0.068,10.272-0.189
			c0.109,0.125,0.165,0.187,0.274,0.311c-0.094,0.286-0.248,0.908-0.46,1.867s-0.374,1.949-0.49,2.968
			c-1.318,0.019-1.977,0.035-3.293,0.079c0.001-0.067,0.017-0.205,0.047-0.417c0.029-0.21,0.047-0.416,0.051-0.616
			c0.009-0.489-0.078-0.834-0.262-1.038c-0.184-0.203-0.542-0.348-1.076-0.432c-0.536-0.083-1.42-0.13-2.651-0.125
			c-0.724,0.003-1.172,0.053-1.345,0.144c-0.174,0.091-0.271,0.315-0.292,0.67c-0.06,1.508-0.089,2.262-0.146,3.77
			c1.159-0.017,1.738-0.02,2.897-0.017c0.471,0.001,1.137-0.023,2-0.067s1.438-0.069,1.728-0.085
			c0.123,0.123,0.183,0.184,0.305,0.307c-0.212,0.956-0.317,1.433-0.524,2.389c-0.283-0.006-0.816-0.029-1.601-0.062
			c-0.785-0.032-1.617-0.05-2.492-0.049c-0.695,0-2.2-0.026-2.392,0.186c-0.254,0.282-0.044,2.158-0.027,3.269
			c0.008,0.489,0.051,0.833,0.129,1.031c0.078,0.199,0.242,0.336,0.494,0.411c0.25,0.075,0.676,0.109,1.276,0.106
			c1.251-0.005,2.165-0.068,2.742-0.206c0.578-0.138,0.997-0.396,1.256-0.78c0.259-0.384,0.475-1.019,0.647-1.904
			c1.162-0.054,1.743-0.075,2.908-0.109c0.116,0.125,0.176,0.187,0.292,0.312c-0.087,0.263-0.247,0.88-0.475,1.85
			c-0.227,0.97-0.42,1.998-0.583,3.082c-0.138,0.115-0.207,0.172-0.345,0.288c-0.615-0.043-1.95-0.125-4.009-0.19
			c-2.06-0.066-3.918-0.069-5.57-0.031c-1.16,0.027-2.282,0.104-3.362,0.229c-1.082,0.125-1.779,0.214-2.099,0.254
			C259.323,81.88,259.347,81.491,259.394,80.714z"/>
		<path d="M281.269,82.696c-0.801-0.206-1.432-0.405-1.891-0.601c-0.458-0.197-0.751-0.319-0.871-0.371
			c-0.109-0.167-0.163-0.25-0.273-0.417c0.065-0.264,0.198-0.846,0.402-1.748c0.204-0.901,0.347-1.76,0.422-2.58
			c1.15-0.01,1.725-0.011,2.876-0.002c-0.1,1.286,0.073,2.185,0.511,2.7c0.437,0.514,1.263,0.823,2.485,0.941
			c0.921,0.089,1.665,0.012,2.236-0.239c0.571-0.25,0.889-0.637,0.95-1.167c0.061-0.53-0.189-1.018-0.757-1.46
			s-1.476-0.976-2.734-1.583c-0.312-0.149-0.467-0.224-0.779-0.372c-1.513-0.736-2.696-1.478-3.544-2.248
			c-0.849-0.769-1.248-1.714-1.181-2.846c0.061-1.021,0.492-1.91,1.308-2.659c0.814-0.749,1.937-1.294,3.365-1.622
			c1.429-0.327,3.045-0.401,4.831-0.206c1.001,0.11,1.929,0.27,2.78,0.477c0.852,0.208,1.525,0.404,2.022,0.584
			c0.496,0.18,0.808,0.303,0.936,0.366c0.091,0.174,0.137,0.262,0.227,0.436c-0.09,0.235-0.29,0.774-0.6,1.616
			c-0.309,0.843-0.584,1.741-0.822,2.695c-1.093-0.084-1.638-0.122-2.729-0.189c-0.118-0.082-0.179-0.123-0.296-0.205
			c0.055-0.316,0.083-0.474,0.137-0.79c0.087-0.706-0.089-1.248-0.529-1.625s-1.196-0.626-2.262-0.738
			c-0.854-0.089-1.58,0.003-2.168,0.271c-0.589,0.269-0.903,0.65-0.946,1.137c-0.049,0.554,0.255,1.042,0.903,1.472
			c0.647,0.429,1.682,0.979,3.073,1.674c1.145,0.572,2.066,1.105,2.766,1.576c0.699,0.472,1.269,1.043,1.708,1.711
			c0.439,0.667,0.595,1.421,0.474,2.256c-0.23,1.584-1.216,2.727-2.919,3.468c-1.704,0.742-3.848,0.964-6.475,0.722
			C282.947,83.047,282.07,82.902,281.269,82.696z"/>
		<path d="M298.355,84.887c-0.777-0.288-1.386-0.55-1.823-0.793c-0.437-0.243-0.714-0.395-0.828-0.459
			c-0.092-0.177-0.139-0.265-0.231-0.442c0.092-0.255,0.284-0.821,0.581-1.696c0.297-0.875,0.525-1.715,0.686-2.523
			c1.147,0.108,1.721,0.168,2.869,0.296c-0.232,1.269-0.151,2.181,0.231,2.738c0.382,0.557,1.175,0.95,2.382,1.194
			c0.91,0.185,1.661,0.186,2.257-0.004s0.954-0.542,1.069-1.063c0.116-0.521-0.085-1.032-0.605-1.531
			c-0.521-0.499-1.373-1.124-2.566-1.859c-0.296-0.181-0.441-0.271-0.738-0.451c-1.432-0.888-2.536-1.749-3.303-2.602
			c-0.767-0.853-1.068-1.834-0.885-2.953c0.165-1.008,0.687-1.849,1.576-2.509c0.891-0.661,2.066-1.087,3.525-1.265
			c1.459-0.177,3.078-0.083,4.842,0.297c0.987,0.213,1.897,0.469,2.727,0.764s1.481,0.561,1.96,0.792
			c0.477,0.231,0.775,0.386,0.897,0.462c0.072,0.183,0.109,0.275,0.181,0.458c-0.112,0.224-0.37,0.739-0.765,1.544
			c-0.396,0.806-0.763,1.672-1.1,2.596c-1.083-0.198-1.624-0.293-2.708-0.474c-0.108-0.094-0.164-0.14-0.273-0.234
			c0.087-0.308,0.132-0.463,0.219-0.771c0.158-0.693,0.039-1.251-0.362-1.672c-0.4-0.42-1.13-0.748-2.183-0.97
			c-0.843-0.177-1.573-0.161-2.188,0.045c-0.615,0.207-0.969,0.554-1.062,1.033c-0.106,0.546,0.146,1.062,0.748,1.557
			c0.603,0.494,1.577,1.148,2.896,1.985c1.083,0.688,1.949,1.315,2.599,1.856c0.65,0.542,1.16,1.17,1.531,1.88
			c0.37,0.709,0.447,1.476,0.24,2.294c-0.393,1.552-1.496,2.585-3.273,3.145c-1.778,0.56-3.94,0.559-6.536,0.045
			C299.994,85.41,299.134,85.174,298.355,84.887z"/>
		<path d="M312.881,86.414c0.914,0.088,1.54,0.041,1.884-0.151c0.343-0.191,0.616-0.638,0.818-1.343
			c1.084-3.727,1.626-5.591,2.712-9.318c0.146-0.513,0.168-0.877,0.061-1.093c-0.106-0.215-0.396-0.389-0.866-0.521
			c-0.423-0.118-0.635-0.176-1.058-0.292c-0.035-0.12-0.051-0.18-0.085-0.3c0.25-0.609,0.375-0.914,0.626-1.523
			c1.882,0.527,2.82,0.804,4.69,1.382c0.577,0.174,1.434,0.413,2.572,0.728c1.139,0.315,1.894,0.531,2.267,0.631
			c-0.317,0.696-0.478,1.043-0.794,1.74c-0.828-0.181-1.394-0.222-1.693-0.131c-0.3,0.091-0.559,0.366-0.749,0.812
			c-1.271,2.974-2.368,6.164-3.386,9.386c-0.215,0.679-0.284,1.151-0.21,1.42s0.337,0.474,0.794,0.622
			c0.312,0.101,0.574,0.175,0.784,0.22c0.21,0.046,0.354,0.082,0.425,0.105c0.047,0.1,0.069,0.15,0.115,0.25
			c-0.323,0.637-0.485,0.956-0.807,1.594c-0.332-0.11-0.951-0.326-1.858-0.637c-0.908-0.312-1.779-0.592-2.614-0.842
			c-0.692-0.208-1.513-0.419-2.462-0.63c-0.948-0.21-1.57-0.339-1.863-0.395C312.462,87.439,312.602,87.098,312.881,86.414z"/>
		<path d="M329.059,87.218c0.152-3.29,0.145-5.936,0.12-7.838c-0.007-0.557-0.135-1.033-0.409-1.4
			c-0.273-0.367-0.698-0.675-1.275-0.92c-0.036-0.097-0.055-0.145-0.091-0.242c0.312-0.612,0.47-0.918,0.784-1.529
			c0.286,0.098,0.829,0.296,1.625,0.602c0.797,0.305,1.621,0.616,2.473,0.931c1.033,0.382,2.137,0.777,3.308,1.188
			c1.173,0.412,1.928,0.684,2.27,0.799c0.047,0.105,0.069,0.158,0.115,0.264c-0.323,0.617-0.485,0.926-0.808,1.543
			c-0.76-0.238-1.308-0.39-1.646-0.465c-0.338-0.074-0.579-0.078-0.721-0.015c-0.143,0.064-0.258,0.209-0.347,0.437
			c-0.138,0.352-0.328,1.959-0.624,4.809c-0.297,2.85-0.524,4.775-0.633,5.788c0.186,0.076,0.278,0.114,0.463,0.19
			c0.604-0.521,1.956-1.935,4.122-4.2s3.364-3.557,3.525-3.923c0.115-0.264,0.095-0.486-0.066-0.666
			c-0.161-0.18-0.529-0.396-1.108-0.644c-0.453-0.194-0.679-0.291-1.133-0.482c-0.03-0.099-0.045-0.148-0.075-0.248
			c0.344-0.607,0.516-0.912,0.861-1.519c0.298,0.149,0.889,0.422,1.769,0.827c0.88,0.406,1.837,0.842,2.872,1.312
			c1.475,0.655,2.209,0.99,3.673,1.679c-0.414,0.63-0.621,0.945-1.033,1.576c-0.466-0.173-0.844-0.229-1.13-0.167
			c-0.287,0.062-0.632,0.267-1.036,0.618c-4.419,3.853-6.555,5.837-10.676,9.906c-2.222-0.718-3.334-1.056-5.565-1.691
			C328.751,92.677,328.907,90.507,329.059,87.218z"/>
		<path d="M343.223,97.887c0.817,0.306,1.436,0.389,1.856,0.241c0.42-0.147,0.809-0.568,1.163-1.261
			c1.743-3.378,2.613-5.067,4.358-8.444c0.253-0.495,0.362-0.859,0.325-1.089c-0.036-0.23-0.255-0.446-0.648-0.645
			c-0.36-0.167-0.539-0.251-0.899-0.416c-0.042-0.14-0.062-0.209-0.104-0.349c0.406-0.559,0.609-0.836,1.018-1.394
			c0.398,0.198,1.157,0.589,2.276,1.189c1.116,0.601,2.317,1.246,3.594,1.94c4.345,2.363,7.418,4.132,9.322,5.079
			c0.037,0.165,0.057,0.247,0.094,0.411c-0.225,0.201-0.67,0.663-1.334,1.389c-0.663,0.727-1.298,1.504-1.904,2.331
			c-1.196-0.66-1.797-0.984-3.002-1.62c0.034-0.057,0.116-0.169,0.247-0.337c0.131-0.167,0.248-0.338,0.35-0.51
			c0.249-0.421,0.342-0.766,0.276-1.037c-0.065-0.271-0.317-0.581-0.756-0.926c-0.44-0.346-1.21-0.838-2.317-1.459
			c-0.65-0.365-1.077-0.549-1.276-0.558c-0.2-0.009-0.398,0.137-0.593,0.436c-0.798,1.282-1.194,1.923-1.988,3.207
			c1.047,0.573,1.568,0.865,2.607,1.458c0.422,0.24,1.031,0.558,1.829,0.96c0.797,0.403,1.328,0.674,1.596,0.808
			c0.05,0.17,0.073,0.255,0.122,0.425c-0.661,0.723-0.989,1.085-1.646,1.811c-0.252-0.15-0.723-0.444-1.411-0.873
			c-0.689-0.43-1.427-0.867-2.213-1.312c-0.625-0.353-1.96-1.145-2.238-1.053c-0.359,0.12-1.102,1.855-1.634,2.831
			c-0.234,0.43-0.365,0.75-0.394,0.963c-0.027,0.212,0.053,0.416,0.241,0.608c0.188,0.192,0.553,0.438,1.093,0.741
			c1.124,0.631,1.978,1.041,2.564,1.216s1.09,0.164,1.513-0.038c0.422-0.202,0.928-0.644,1.52-1.326
			c1.072,0.548,1.606,0.828,2.673,1.397c0.044,0.169,0.065,0.253,0.109,0.422c-0.208,0.185-0.657,0.639-1.339,1.366
			c-0.683,0.728-1.362,1.523-2.043,2.382c-0.181,0.029-0.271,0.044-0.452,0.074c-0.533-0.354-1.696-1.11-3.515-2.217
			c-1.817-1.108-3.482-2.054-4.98-2.856c-1.053-0.563-2.093-1.063-3.12-1.498c-1.027-0.437-1.694-0.709-1.998-0.834
			C342.586,98.866,342.798,98.54,343.223,97.887z"/>
		<path d="M179.387,133.569c0.67-0.771,1.036-1.402,1.09-1.9c0.054-0.499-0.197-1.123-0.756-1.871
			c-3.087-4.137-4.63-6.206-7.716-10.342c-0.412-0.552-0.76-0.869-1.042-0.949c-0.281-0.081-0.647,0.047-1.093,0.385
			c-0.417,0.334-0.626,0.502-1.041,0.84c-0.126-0.038-0.189-0.057-0.315-0.094c-0.377-0.687-0.564-1.03-0.938-1.718
			c1.702-1.295,2.561-1.928,4.293-3.161c0.687-0.495,2.097-1.61,4.279-3.268c0.428,0.773,0.643,1.16,1.071,1.932
			c-0.732,0.629-1.159,1.134-1.285,1.504c-0.127,0.372-0.034,0.835,0.282,1.367c2.667,4.475,5.146,8.188,7.199,11.118
			c0.523,0.747,0.949,1.194,1.276,1.346s0.702,0.08,1.131-0.215c0.205-0.141,0.595-0.451,1.176-0.922
			c0.089,0.036,0.134,0.054,0.224,0.09c0.367,0.766,0.552,1.147,0.923,1.912c-0.405,0.257-0.608,0.387-1.012,0.648
			c-1.237,0.818-1.852,1.235-3.072,2.088c-0.832,0.604-2.02,1.6-3.527,3.023C180.073,134.657,179.844,134.294,179.387,133.569z"/>
		<path d="M195.393,109.197c-0.217-0.363-0.425-0.58-0.626-0.651c-0.2-0.07-0.45-0.026-0.749,0.133
			c-0.358,0.19-0.537,0.287-0.895,0.48c-0.083-0.062-0.124-0.092-0.207-0.154c-0.266-0.645-0.398-0.967-0.662-1.613
			c0.269-0.12,0.763-0.361,1.486-0.718c0.725-0.356,1.455-0.722,2.195-1.098c0.718-0.364,1.387-0.716,2.007-1.057
			c0.619-0.34,1.035-0.57,1.245-0.695c0.275,0.711,0.414,1.067,0.69,1.777c-0.547,0.361-0.891,0.715-1.03,1.056
			c-0.14,0.341-0.107,0.747,0.098,1.216c2.25,4.943,3.382,7.411,5.658,12.342c-1.1,0.697-1.646,1.051-2.73,1.772
			c-2.625-1.432-5.122-2.653-7.463-3.688c-2.342-1.034-3.868-1.644-4.518-1.905c-0.109,0.065-0.163,0.097-0.272,0.163
			c1.455,2.439,2.183,3.659,3.638,6.099c0.239,0.401,0.468,0.64,0.683,0.718c0.217,0.079,0.478,0.027,0.785-0.154
			c0.173-0.102,0.354-0.222,0.546-0.359c0.19-0.137,0.325-0.227,0.403-0.272c0.091,0.024,0.136,0.037,0.227,0.061
			c0.256,0.685,0.385,1.026,0.643,1.709c-0.229,0.132-0.665,0.365-1.307,0.707c-0.643,0.342-1.266,0.699-1.868,1.068
			c-0.547,0.335-1.118,0.724-1.714,1.167c-0.597,0.443-0.979,0.739-1.153,0.877c-0.335-0.689-0.501-1.034-0.834-1.724
			c0.435-0.359,0.691-0.707,0.77-1.046c0.078-0.338-0.015-0.74-0.279-1.204c-1.99-3.444-2.98-5.168-4.953-8.623
			c-0.295-0.471-0.632-0.712-1.013-0.722c-0.38-0.01-1.013,0.199-1.895,0.637c-0.144-0.034-0.215-0.051-0.359-0.084
			c-0.289-0.607-0.435-0.911-0.722-1.52c0.198-0.103,0.64-0.355,1.325-0.751s1.312-0.767,1.879-1.116
			c0.609-0.375,1.162-0.722,1.658-1.045c0.495-0.322,0.888-0.65,0.98-0.661c1.289-0.144,4.744,2.139,7.014,3.16
			s3.697,1.71,4.341,1.999c0.109-0.058,0.165-0.087,0.274-0.144C197.371,112.88,196.712,111.653,195.393,109.197z"/>
		<path d="M209.064,115.896c0.736-0.403,1.248-0.74,1.535-1.022c0.286-0.281,0.422-0.592,0.407-0.937
			c-0.015-0.344-0.16-0.843-0.438-1.499c-1.576-3.707-2.365-5.561-3.94-9.268c-0.87,0.395-1.463,0.752-1.782,1.062
			c-0.319,0.311-0.475,0.709-0.466,1.193c0.008,0.483,0.166,1.241,0.478,2.271c-0.945,0.5-1.416,0.754-2.353,1.271
			c-0.141-0.352-0.438-1.103-0.888-2.254c-0.45-1.151-0.895-2.226-1.336-3.223c0.075-0.183,0.113-0.274,0.189-0.457
			c1.176-0.417,1.764-0.619,2.943-1.011c3.432-1.523,5.166-2.232,8.661-3.545c1.137-0.555,1.707-0.827,2.854-1.36
			c0.182,0.078,0.272,0.116,0.453,0.194c0.397,1.062,0.82,2.139,1.265,3.232s0.732,1.793,0.864,2.101
			c-0.978,0.412-1.464,0.622-2.435,1.05c-0.53-1.036-0.961-1.743-1.289-2.119c-0.329-0.376-0.698-0.565-1.104-0.566
			c-0.406-0.001-1.783,0.251-1.887,0.46c-0.353,0.707,1.972,5.781,3.658,10.062c0.236,0.6,0.506,0.983,0.809,1.152
			c0.302,0.168,0.706,0.153,1.219-0.043c0.327-0.125,0.609-0.244,0.848-0.357s0.39-0.181,0.451-0.204
			c0.056,0.036,0.083,0.054,0.139,0.09c0.188,0.77,0.282,1.155,0.472,1.925c-0.353,0.107-0.989,0.314-1.909,0.636
			c-0.918,0.321-1.79,0.653-2.612,0.991c-0.581,0.239-1.352,0.589-2.306,1.062s-1.581,0.796-1.889,0.958
			C209.432,117.003,209.309,116.635,209.064,115.896z"/>
		<path d="M222.27,110.813c0.675-0.319,1.089-0.67,1.24-1.058c0.15-0.387,0.107-0.952-0.13-1.693
			c-1.149-3.624-1.724-5.435-2.871-9.059c-0.169-0.529-0.341-0.866-0.511-1.009c-0.171-0.143-0.438-0.158-0.799-0.04
			c-0.321,0.119-0.48,0.179-0.801,0.3c-0.115-0.074-0.173-0.111-0.288-0.185c-0.121-0.677-0.182-1.016-0.301-1.693
			c0.365-0.121,1.07-0.343,2.12-0.654c1.048-0.31,2.171-0.643,3.368-0.994c4.074-1.195,6.982-1.992,8.688-2.595
			c0.125,0.094,0.188,0.142,0.312,0.236c-0.004,0.298,0.027,0.935,0.098,1.911c0.071,0.977,0.19,1.971,0.358,2.981
			c-1.108,0.33-1.661,0.501-2.764,0.852c-0.017-0.064-0.04-0.202-0.07-0.413c-0.029-0.21-0.068-0.412-0.118-0.606
			c-0.121-0.473-0.286-0.787-0.495-0.939s-0.552-0.209-1.027-0.165c-0.477,0.045-1.239,0.207-2.284,0.499
			c-0.614,0.171-0.983,0.324-1.106,0.452c-0.122,0.128-0.146,0.366-0.068,0.714c0.352,1.467,0.527,2.201,0.882,3.668
			c0.979-0.284,1.468-0.422,2.449-0.689c0.398-0.108,0.955-0.287,1.674-0.531c0.718-0.244,1.197-0.405,1.437-0.487
			c0.136,0.09,0.204,0.135,0.34,0.226c0.071,0.972,0.108,1.457,0.185,2.428c-0.24,0.06-0.697,0.164-1.367,0.315
			c-0.671,0.152-1.377,0.328-2.116,0.532c-0.587,0.162-1.86,0.505-1.973,0.734c-0.168,0.345,0.54,2.088,0.852,3.155
			c0.137,0.47,0.265,0.792,0.383,0.965c0.12,0.173,0.295,0.267,0.526,0.282c0.23,0.014,0.599-0.05,1.104-0.191
			c1.051-0.293,1.8-0.566,2.249-0.833c0.448-0.267,0.732-0.614,0.85-1.045c0.117-0.431,0.132-1.094,0.045-1.988
			c0.963-0.324,1.446-0.481,2.416-0.788c0.131,0.093,0.196,0.138,0.327,0.231c-0.005,0.275,0.021,0.909,0.084,1.898
			c0.062,0.99,0.167,2.027,0.312,3.111c-0.085,0.144-0.128,0.215-0.213,0.359c-0.525,0.102-1.664,0.337-3.406,0.75
			c-1.744,0.413-3.307,0.837-4.686,1.25c-0.969,0.291-1.893,0.62-2.77,0.985c-0.878,0.365-1.442,0.607-1.7,0.718
			C222.528,111.95,222.441,111.571,222.27,110.813z"/>
		<path d="M238.484,106.402c0.634-0.247,1.043-0.55,1.225-0.916c0.181-0.365,0.2-0.918,0.053-1.66
			c-0.746-3.754-1.119-5.631-1.865-9.386c-0.104-0.523-0.242-0.858-0.416-1.005c-0.174-0.146-0.458-0.181-0.851-0.1
			c-0.333,0.068-0.499,0.103-0.831,0.173c-0.105-0.087-0.159-0.131-0.265-0.218c-0.038-0.66-0.058-0.989-0.094-1.649
			c1.63-0.33,2.446-0.484,4.082-0.771c0.867-0.159,1.786-0.342,2.756-0.548c0.97-0.205,1.642-0.342,2.017-0.421
			c0.023,0.819,0.036,1.229,0.062,2.049c-0.666,0.169-1.14,0.336-1.422,0.495c-0.284,0.159-0.455,0.352-0.513,0.575
			c-0.057,0.224-0.077,0.565-0.044,1.004c0.204,2.655,0.67,5.783,1.271,9.288c0.098,0.57,0.267,0.936,0.504,1.099
			c0.236,0.163,0.654,0.194,1.254,0.099c0.814-0.131,1.414-0.328,1.803-0.598c0.388-0.271,0.647-0.689,0.778-1.257
			c0.13-0.568,0.18-1.444,0.152-2.63c0.992-0.244,1.489-0.361,2.486-0.588c0.095,0.11,0.141,0.165,0.235,0.275
			c-0.006,0.336-0.013,1.121-0.019,2.353c-0.005,1.231,0.021,2.505,0.075,3.82c-0.099,0.146-0.147,0.22-0.245,0.367
			c-0.469,0.036-1.494,0.125-3.074,0.301c-1.581,0.176-3.035,0.388-4.361,0.625c-0.989,0.176-1.938,0.396-2.846,0.657
			c-0.907,0.26-1.48,0.433-1.727,0.508C238.592,107.565,238.556,107.178,238.484,106.402z"/>
		<path d="M252.853,104.116c0.653-0.182,1.088-0.444,1.304-0.79c0.216-0.345,0.29-0.893,0.218-1.645
			c-0.368-3.81-0.552-5.715-0.92-9.525c-0.051-0.531-0.155-0.878-0.313-1.042c-0.157-0.163-0.436-0.225-0.833-0.184
			c-0.337,0.035-0.506,0.051-0.843,0.088c-0.096-0.097-0.144-0.145-0.239-0.241c0.027-0.661,0.041-0.991,0.069-1.652
			c1.649-0.165,2.475-0.236,4.126-0.358c0.877-0.072,1.807-0.163,2.79-0.272c0.982-0.108,1.664-0.177,2.043-0.219
			c-0.058,0.818-0.085,1.228-0.141,2.045c-0.678,0.103-1.164,0.222-1.461,0.352c-0.298,0.13-0.487,0.304-0.566,0.521
			c-0.079,0.217-0.133,0.554-0.143,0.995c-0.062,2.663,0.092,5.82,0.34,9.368c0.041,0.577,0.171,0.958,0.39,1.144
			c0.22,0.186,0.631,0.258,1.235,0.222c0.821-0.048,1.438-0.185,1.851-0.416c0.412-0.23,0.711-0.62,0.897-1.173
			c0.186-0.552,0.322-1.42,0.412-2.603c1.01-0.144,1.515-0.211,2.528-0.338c0.083,0.118,0.124,0.177,0.207,0.296
			c-0.039,0.334-0.125,1.115-0.253,2.34c-0.128,1.225-0.229,2.496-0.306,3.809c-0.112,0.136-0.168,0.204-0.279,0.34
			c-0.469-0.011-1.495-0.024-3.083-0.006c-1.587,0.019-3.052,0.085-4.392,0.188c-0.999,0.077-1.962,0.2-2.888,0.369
			s-1.512,0.283-1.764,0.333C252.844,105.283,252.846,104.895,252.853,104.116z"/>
		<path d="M267.214,103.305c0.774-0.163,1.281-0.379,1.52-0.657c0.239-0.277,0.361-0.783,0.364-1.516
			c0.025-3.881,0.039-5.821,0.068-9.702c0.002-0.534-0.069-0.889-0.21-1.068c-0.14-0.178-0.421-0.268-0.844-0.267
			c-0.381,0.001-0.571,0.003-0.952,0.006c-0.057-0.106-0.086-0.159-0.144-0.266c0.064-0.654,0.097-0.981,0.162-1.636
			c1.698-0.001,2.547,0.009,4.244,0.052c0.522,0.009,1.296,0.003,2.319-0.009c1.023-0.011,1.703-0.015,2.037-0.022
			c-0.105,0.756-0.156,1.135-0.26,1.891c-0.733,0.057-1.213,0.174-1.442,0.344c-0.229,0.17-0.38,0.505-0.437,0.987
			c-0.371,3.216-0.546,6.577-0.646,9.954c-0.021,0.711,0.029,1.185,0.151,1.422s0.389,0.362,0.799,0.377
			c0.28,0.01,0.511,0.008,0.694-0.006c0.184-0.014,0.311-0.02,0.375-0.017c0.061,0.083,0.091,0.124,0.151,0.207
			c-0.122,0.702-0.181,1.053-0.302,1.755c-0.298-0.013-0.857-0.049-1.676-0.097c-0.819-0.048-1.603-0.078-2.348-0.089
			c-0.618-0.01-1.342,0.011-2.172,0.066c-0.83,0.055-1.373,0.1-1.628,0.125C267.108,104.407,267.144,104.039,267.214,103.305z"/>
		<path d="M279.314,103.426c-1.314-1.568-1.93-3.614-1.779-6.167c0.168-2.84,1.187-5.015,3.134-6.471
			c1.948-1.457,4.614-2.029,7.904-1.619c0.758,0.095,1.563,0.251,2.412,0.471c0.848,0.22,1.567,0.429,2.164,0.623
			s0.973,0.328,1.131,0.399c0.062,0.158,0.091,0.237,0.151,0.396c-0.041,0.106-0.15,0.365-0.324,0.775
			c-0.174,0.411-0.377,0.964-0.606,1.658c-0.229,0.695-0.431,1.445-0.604,2.25c-1.239-0.115-1.859-0.166-3.099-0.256
			c0.009-0.066,0.042-0.225,0.101-0.475c0.058-0.249,0.111-0.551,0.16-0.903c0.098-0.704-0.048-1.23-0.438-1.574
			c-0.391-0.344-1.088-0.582-2.089-0.702c-1.629-0.196-2.879,0.114-3.727,0.902c-0.848,0.789-1.346,2.118-1.513,3.978
			c-0.188,2.082,0.038,3.696,0.652,4.85c0.614,1.154,1.589,1.8,2.946,1.961c0.431,0.051,0.825,0.055,1.182,0.011
			c0.355-0.044,0.638-0.098,0.843-0.16c0.206-0.062,0.332-0.102,0.379-0.118c0.119-0.885,0.18-1.328,0.299-2.213
			c0.065-0.484,0.036-0.813-0.087-0.987c-0.123-0.173-0.415-0.291-0.879-0.35c-0.531-0.068-0.797-0.1-1.328-0.163
			c-0.054-0.114-0.08-0.171-0.134-0.285c0.226-0.779,0.339-1.168,0.569-1.947c1.562,0.2,2.342,0.31,3.898,0.55
			c0.583,0.085,1.172,0.157,1.771,0.217c0.598,0.061,0.988,0.098,1.172,0.105c0.004,0.474,0.007,0.71,0.009,1.184
			c-0.388,0.138-0.682,0.333-0.881,0.582c-0.199,0.25-0.368,0.633-0.508,1.151c-0.139,0.518-0.294,1.316-0.465,2.391
			c-0.14,0.878-0.203,1.622-0.19,2.232c-0.125,0.128-0.189,0.193-0.313,0.322c-0.135,0.024-0.466,0.072-0.998,0.149
			c-0.531,0.077-1.268,0.12-2.206,0.138c-0.939,0.018-1.978-0.041-3.119-0.171C282.472,105.882,280.628,104.993,279.314,103.426z"/>
		<path d="M295.378,105.744c0.739,0.048,1.268-0.058,1.586-0.323c0.318-0.265,0.556-0.779,0.708-1.542
			c0.761-3.724,1.141-5.586,1.903-9.311c0.108-0.544,0.125-0.922,0.046-1.129c-0.078-0.208-0.303-0.35-0.673-0.421
			c-0.336-0.052-0.504-0.077-0.84-0.127c-0.063-0.121-0.096-0.182-0.16-0.302c0.224-0.65,0.334-0.975,0.56-1.624
			c0.375,0.071,1.095,0.218,2.155,0.456c1.06,0.238,2.196,0.493,3.409,0.767c4.127,0.933,7.062,1.651,8.851,1.954
			c0.063,0.143,0.095,0.215,0.158,0.358c-0.148,0.258-0.433,0.83-0.847,1.717c-0.413,0.888-0.792,1.813-1.137,2.778
			c-1.133-0.252-1.7-0.372-2.835-0.602c0.017-0.064,0.064-0.195,0.141-0.394c0.076-0.198,0.14-0.394,0.19-0.587
			c0.125-0.473,0.135-0.827,0.026-1.062c-0.108-0.235-0.383-0.451-0.819-0.643c-0.438-0.192-1.182-0.422-2.234-0.675
			c-0.619-0.148-1.014-0.194-1.183-0.142c-0.17,0.052-0.306,0.25-0.407,0.591c-0.407,1.453-0.611,2.18-1.015,3.633
			c0.989,0.227,1.484,0.344,2.47,0.587c0.4,0.099,0.973,0.212,1.719,0.348c0.746,0.136,1.243,0.23,1.493,0.274
			c0.075,0.145,0.113,0.217,0.188,0.362c-0.411,0.884-0.615,1.326-1.021,2.211c-0.24-0.064-0.689-0.196-1.349-0.39
			c-0.66-0.193-1.362-0.381-2.106-0.562c-0.591-0.144-1.866-0.463-2.074-0.318c-0.315,0.22-0.546,2.087-0.794,3.17
			c-0.108,0.477-0.153,0.82-0.134,1.03s0.127,0.377,0.321,0.501c0.194,0.125,0.547,0.247,1.055,0.369
			c1.059,0.253,1.846,0.38,2.367,0.365c0.522-0.015,0.938-0.181,1.251-0.501c0.312-0.319,0.648-0.891,1.008-1.715
			c1,0.186,1.501,0.284,2.5,0.487c0.069,0.145,0.104,0.217,0.173,0.362c-0.138,0.238-0.423,0.803-0.851,1.698
			c-0.428,0.896-0.842,1.853-1.242,2.871c-0.145,0.084-0.218,0.126-0.361,0.21c-0.511-0.167-1.622-0.515-3.346-1.001
			c-1.725-0.486-3.291-0.875-4.691-1.183c-0.983-0.216-1.944-0.376-2.882-0.483c-0.938-0.107-1.544-0.168-1.821-0.197
			C295.051,106.864,295.159,106.49,295.378,105.744z"/>
		<path d="M328.39,102.958c0.138-0.399,0.173-0.699,0.099-0.897c-0.074-0.198-0.266-0.36-0.576-0.485
			c-0.372-0.15-0.559-0.225-0.932-0.372c-0.006-0.103-0.011-0.154-0.016-0.257c0.321-0.619,0.483-0.928,0.807-1.546
			c0.261,0.127,0.758,0.35,1.489,0.671c0.73,0.322,1.474,0.644,2.232,0.966c0.735,0.313,1.431,0.596,2.088,0.851
			c0.656,0.254,1.099,0.424,1.329,0.504c-0.366,0.668-0.55,1.003-0.915,1.672c-0.627-0.186-1.116-0.221-1.466-0.108
			c-0.351,0.113-0.639,0.4-0.865,0.859c-2.334,4.904-3.494,7.359-5.801,12.276c-1.233-0.391-1.854-0.579-3.09-0.939
			c-0.578-2.925-1.228-5.616-1.917-8.065c-0.69-2.449-1.184-4.004-1.393-4.666c-0.118-0.042-0.177-0.062-0.295-0.103
			c-0.933,2.684-1.397,4.025-2.33,6.709c-0.153,0.441-0.193,0.769-0.117,0.984c0.075,0.215,0.277,0.38,0.606,0.497
			c0.187,0.066,0.391,0.127,0.615,0.184c0.223,0.057,0.376,0.1,0.459,0.13c0.038,0.085,0.058,0.128,0.096,0.213
			c-0.357,0.636-0.534,0.955-0.889,1.592c-0.244-0.088-0.694-0.27-1.354-0.537c-0.661-0.267-1.319-0.51-1.974-0.729
			c-0.594-0.198-1.241-0.382-1.945-0.548c-0.703-0.166-1.162-0.266-1.374-0.308c0.311-0.7,0.466-1.05,0.778-1.749
			c0.54,0.097,0.961,0.068,1.265-0.092c0.303-0.16,0.547-0.49,0.731-0.991c1.357-3.739,2.041-5.607,3.416-9.339
			c0.172-0.528,0.144-0.941-0.085-1.237c-0.229-0.295-0.778-0.64-1.653-1.026c-0.063-0.131-0.096-0.198-0.16-0.329
			c0.277-0.612,0.418-0.918,0.696-1.53c0.2,0.085,0.662,0.256,1.385,0.521c0.724,0.265,1.392,0.501,2.008,0.706
			c0.661,0.22,1.27,0.415,1.823,0.583c0.553,0.168,1.048,0.256,1.113,0.319c0.919,0.883,1.358,4.99,2.018,7.377
			c0.658,2.388,1.042,3.92,1.231,4.597c0.113,0.046,0.169,0.069,0.283,0.115C326.844,106.843,327.359,105.549,328.39,102.958z"/>
		<path d="M332.219,117.647c-0.657-1.937-0.476-4.072,0.615-6.409c0.78-1.672,1.825-2.958,3.163-3.835s2.886-1.298,4.635-1.236
			c1.75,0.062,3.591,0.607,5.482,1.648c0.666,0.366,1.361,0.812,2.079,1.337c0.719,0.525,1.32,0.991,1.809,1.395
			c0.489,0.404,0.795,0.672,0.92,0.799c-0.012,0.164-0.019,0.247-0.031,0.41c-0.078,0.083-0.282,0.291-0.61,0.625
			c-0.327,0.334-0.737,0.797-1.228,1.384s-0.971,1.232-1.442,1.935c-1.142-0.585-1.715-0.871-2.863-1.43
			c0.033-0.058,0.118-0.195,0.255-0.412c0.136-0.217,0.291-0.479,0.467-0.789c0.361-0.639,0.416-1.221,0.159-1.748
			s-0.841-1.043-1.752-1.536c-1.292-0.701-2.47-0.816-3.506-0.363c-1.037,0.454-1.961,1.501-2.783,3.127
			c-0.924,1.825-1.295,3.398-1.14,4.717c0.155,1.319,0.814,2.282,1.99,2.921c0.823,0.447,1.585,0.567,2.298,0.356
			c0.711-0.212,1.459-0.794,2.244-1.754c1.113,0.544,1.668,0.823,2.773,1.394c-0.2,0.244-0.631,0.782-1.287,1.618
			c-0.658,0.837-1.234,1.651-1.73,2.443c-0.171,0.053-0.257,0.082-0.428,0.135c-0.137-0.029-0.486-0.115-1.047-0.249
			c-0.561-0.134-1.271-0.358-2.132-0.664c-0.861-0.307-1.731-0.697-2.618-1.173C334.295,121.103,332.875,119.584,332.219,117.647z"
			/>
		<path d="M345.844,125.44c0.691,0.329,1.236,0.433,1.638,0.308s0.812-0.514,1.233-1.168c2.071-3.188,3.108-4.781,5.181-7.967
			c0.301-0.467,0.452-0.814,0.451-1.038c0-0.225-0.166-0.443-0.495-0.653c-0.304-0.178-0.455-0.266-0.76-0.442
			c-0.018-0.137-0.026-0.206-0.045-0.343c0.449-0.522,0.673-0.782,1.123-1.303c0.334,0.21,0.971,0.625,1.904,1.257
			c0.932,0.632,1.932,1.309,2.998,2.037c3.631,2.477,6.203,4.31,7.818,5.303c0.01,0.159,0.014,0.239,0.023,0.398
			c-0.236,0.183-0.715,0.606-1.432,1.273c-0.718,0.668-1.418,1.386-2.097,2.153c-1.002-0.684-1.503-1.021-2.514-1.682
			c0.04-0.054,0.132-0.158,0.277-0.314c0.145-0.155,0.277-0.314,0.396-0.475c0.29-0.394,0.424-0.722,0.404-0.984
			c-0.021-0.263-0.204-0.571-0.557-0.922c-0.353-0.352-0.986-0.859-1.908-1.507c-0.542-0.38-0.905-0.577-1.087-0.594
			c-0.181-0.017-0.383,0.115-0.604,0.394c-0.914,1.201-1.371,1.801-2.282,3.003c0.87,0.597,1.302,0.9,2.164,1.514
			c0.35,0.249,0.86,0.58,1.53,1s1.115,0.703,1.34,0.843c0.021,0.165,0.029,0.248,0.049,0.413c-0.713,0.666-1.067,1-1.776,1.668
			c-0.208-0.155-0.592-0.455-1.157-0.895c-0.565-0.44-1.174-0.891-1.824-1.352c-0.517-0.365-1.627-1.166-1.882-1.106
			c-0.373,0.087-1.275,1.74-1.903,2.658c-0.276,0.404-0.444,0.707-0.501,0.91c-0.057,0.204-0.014,0.401,0.129,0.594
			c0.142,0.192,0.436,0.443,0.881,0.755c0.927,0.65,1.639,1.078,2.146,1.27c0.508,0.191,0.972,0.2,1.388,0.023
			c0.415-0.177,0.942-0.58,1.585-1.21c0.896,0.568,1.345,0.857,2.235,1.444c0.016,0.164,0.022,0.245,0.037,0.408
			c-0.219,0.168-0.698,0.585-1.432,1.254c-0.734,0.669-1.475,1.403-2.227,2.199c-0.17,0.021-0.256,0.031-0.425,0.053
			c-0.433-0.358-1.378-1.124-2.863-2.255c-1.484-1.132-2.851-2.105-4.085-2.937c-0.867-0.584-1.732-1.107-2.594-1.568
			c-0.862-0.461-1.423-0.751-1.678-0.884C345.126,126.36,345.365,126.053,345.844,125.44z"/>
		<path d="M231.523,133.653c-0.73,0.037-1.352,0.027-1.863-0.035c-0.511-0.062-0.771-0.101-0.779-0.122
			c-0.144-0.148-0.215-0.222-0.359-0.37c-0.033-0.152-0.105-0.486-0.215-1.001c-0.108-0.515-0.271-1.2-0.484-2.055
			c-0.214-0.854-0.452-1.671-0.719-2.449c0.868-0.381,1.304-0.568,2.179-0.934c0.382,1.186,0.765,2.066,1.146,2.644
			c0.381,0.579,0.821,0.934,1.32,1.07c0.498,0.136,1.134,0.086,1.914-0.143c0.851-0.25,1.469-0.667,1.863-1.259
			s0.491-1.285,0.277-2.079c-0.19-0.708-0.631-1.237-1.329-1.574c-0.698-0.338-1.742-0.667-3.123-0.977
			c-0.086-0.02-0.337-0.072-0.748-0.157c-1.626-0.335-2.986-0.786-4.06-1.365c-1.074-0.579-1.854-1.532-2.316-2.877
			c-0.412-1.198-0.454-2.39-0.102-3.575c0.353-1.184,1.057-2.248,2.114-3.171c1.059-0.924,2.388-1.618,3.971-2.058
			c0.904-0.251,1.762-0.411,2.568-0.481c0.805-0.071,1.457-0.089,1.955-0.062c0.498,0.027,0.812,0.049,0.946,0.062
			c0.127,0.148,0.189,0.222,0.315,0.371c0.011,0.135,0.026,0.48,0.051,1.034c0.024,0.554,0.085,1.254,0.183,2.099
			c0.097,0.845,0.221,1.707,0.371,2.585c-0.855,0.289-1.281,0.437-2.131,0.74c-0.126-0.05-0.189-0.075-0.315-0.124
			c-0.017-0.064-0.042-0.202-0.076-0.411c-0.033-0.209-0.09-0.464-0.168-0.766c-0.253-0.968-0.656-1.598-1.217-1.885
			c-0.56-0.288-1.379-0.288-2.443,0.015c-0.863,0.246-1.507,0.675-1.922,1.276c-0.416,0.602-0.515,1.244-0.305,1.923
			c0.157,0.51,0.473,0.918,0.938,1.229c0.467,0.311,0.98,0.546,1.542,0.705c0.562,0.16,1.367,0.357,2.405,0.597
			c1.232,0.284,2.261,0.578,3.077,0.875c0.815,0.296,1.55,0.758,2.196,1.379c0.647,0.622,1.085,1.446,1.323,2.462
			c0.304,1.299,0.255,2.514-0.126,3.646c-0.381,1.133-1.048,2.105-2.001,2.933c-0.952,0.828-2.138,1.445-3.571,1.876
			C233.013,133.479,232.253,133.617,231.523,133.653z"/>
		<path d="M244.406,128.396c0.667-0.202,1.14-0.398,1.42-0.598c0.278-0.199,0.439-0.466,0.481-0.801
			c0.041-0.335,0-0.853-0.128-1.553c-0.719-3.963-1.078-5.945-1.798-9.908c-0.788,0.166-1.34,0.363-1.655,0.582
			c-0.315,0.22-0.509,0.564-0.578,1.031c-0.069,0.468-0.055,1.236,0.043,2.305c-0.864,0.244-1.295,0.37-2.154,0.628
			c-0.063-0.373-0.193-1.17-0.391-2.39s-0.403-2.363-0.616-3.432c0.091-0.157,0.138-0.236,0.229-0.393
			c1.05-0.104,1.574-0.152,2.623-0.236c3.11-0.613,4.674-0.875,7.809-1.307c1.04-0.265,1.562-0.392,2.61-0.637
			c0.138,0.118,0.205,0.177,0.343,0.296c0.15,1.124,0.32,2.268,0.505,3.432c0.185,1.165,0.306,1.912,0.362,2.24
			c-0.879,0.168-1.317,0.257-2.193,0.439c-0.268-1.131-0.508-1.918-0.718-2.361c-0.211-0.442-0.486-0.714-0.823-0.812
			c-0.338-0.099-1.526-0.161-1.646-0.012c-0.486,0.602,0.693,6.067,1.396,10.614c0.099,0.638,0.259,1.073,0.479,1.31
			c0.221,0.236,0.557,0.32,1.009,0.255c0.289-0.042,0.54-0.088,0.754-0.14s0.349-0.08,0.402-0.087c0.04,0.048,0.06,0.072,0.1,0.121
			c0.028,0.79,0.043,1.185,0.074,1.975c-0.307,0.019-0.861,0.066-1.666,0.152c-0.804,0.086-1.569,0.192-2.297,0.315
			c-0.515,0.087-1.2,0.234-2.057,0.45c-0.855,0.216-1.422,0.369-1.699,0.448C244.537,129.554,244.494,129.168,244.406,128.396z"/>
		<path d="M258.301,127.1c-0.934-0.836-1.505-2.186-1.684-4.067c-0.309-3.253-0.463-4.879-0.771-8.132
			c-0.055-0.576-0.143-0.947-0.259-1.114c-0.117-0.167-0.347-0.235-0.687-0.201c-0.3,0.043-0.449,0.066-0.748,0.111
			c-0.028-0.037-0.042-0.056-0.07-0.093c0.004-0.751,0.007-1.127,0.014-1.879c0.244-0.026,0.728-0.065,1.451-0.112
			c0.724-0.047,1.503-0.104,2.338-0.168c0.61-0.047,1.221-0.107,1.83-0.179c0.608-0.073,1.025-0.124,1.248-0.159
			c-0.042,0.777-0.063,1.166-0.104,1.943c-0.48,0.072-0.81,0.215-0.986,0.427c-0.178,0.212-0.271,0.542-0.281,0.988
			c0.143,3.025,0.215,4.536,0.363,7.561c0.079,1.153,0.37,2.047,0.862,2.685c0.491,0.638,1.143,0.933,1.964,0.894
			c1.697-0.08,2.52-1.127,2.466-3.193c-0.035-1.311-0.089-2.81-0.163-4.498c-0.074-1.688-0.121-2.876-0.14-3.566
			c-0.016-0.555-0.076-0.926-0.182-1.112c-0.104-0.186-0.309-0.275-0.611-0.265c-0.313,0.023-0.471,0.037-0.784,0.062
			c-0.025-0.039-0.038-0.059-0.063-0.098c0.067-0.75,0.103-1.125,0.173-1.875c0.225-0.009,0.628-0.012,1.21-0.006
			c0.581,0.005,1.158,0.004,1.729-0.004s1.187-0.032,1.85-0.067c0.663-0.035,1.098-0.059,1.303-0.08
			c-0.066,0.76-0.099,1.139-0.164,1.899c-0.605,0.152-0.992,0.304-1.162,0.449c-0.171,0.145-0.254,0.417-0.252,0.817
			c0.014,3.147,0.021,4.722,0.035,7.869c0.009,1.979-0.498,3.489-1.476,4.55c-0.979,1.062-2.379,1.617-4.236,1.713
			C260.561,128.288,259.233,127.935,258.301,127.1z"/>
		<path d="M275.812,128.065c-0.729-0.122-1.362-0.191-1.9-0.214c-0.502-0.022-1.062-0.005-1.683,0.054s-1.029,0.102-1.226,0.121
			c0.069-0.786,0.105-1.179,0.176-1.965c0.62-0.098,1.044-0.291,1.272-0.584c0.229-0.293,0.358-0.805,0.383-1.538
			c0.142-3.825,0.213-5.738,0.355-9.563c0.019-0.555-0.025-0.93-0.13-1.122c-0.104-0.192-0.297-0.293-0.578-0.302
			c-0.181-0.005-0.349,0.002-0.499,0.021c-0.151,0.019-0.256,0.027-0.317,0.025c-0.058-0.108-0.086-0.163-0.145-0.271
			c0.1-0.691,0.149-1.037,0.252-1.729c0.245,0.006,0.703,0.027,1.375,0.072s1.315,0.082,1.927,0.11
			c0.753,0.036,1.539,0.062,2.356,0.081c0.816,0.019,1.391,0.023,1.686,0.035c2.479,0.099,4.5,1.092,5.738,2.606
			c1.237,1.515,1.655,3.517,1.319,5.984c-0.25,1.828-0.812,3.395-1.653,4.709c-0.843,1.316-1.893,2.289-3.151,2.938
			c-1.26,0.65-2.78,1.034-4.121,0.808C277.036,128.308,276.54,128.187,275.812,128.065z M277.16,113.834
			c-0.096,0.083-0.167,0.25-0.197,0.49c-0.529,4.236-0.753,7.559-0.884,9.733c-0.041,0.688,0.046,1.149,0.261,1.385
			c0.215,0.236,0.649,0.376,1.306,0.424c2.514,0.185,3.976-1.656,4.391-5.635c0.225-2.144-0.001-3.734-0.7-4.761
			c-0.699-1.026-1.922-1.619-3.643-1.734C277.434,113.718,277.255,113.752,277.16,113.834z"/>
		<path d="M287.12,127.503c0.672-0.055,1.129-0.199,1.373-0.442c0.244-0.241,0.427-0.724,0.547-1.447
			c0.646-3.827,0.97-5.74,1.618-9.567c0.087-0.526,0.085-0.887-0.005-1.083c-0.09-0.194-0.313-0.322-0.672-0.379
			c-0.323-0.051-0.484-0.077-0.808-0.126c-0.031-0.113-0.048-0.169-0.08-0.281c0.158-0.637,0.237-0.955,0.397-1.592
			c1.441,0.234,2.162,0.36,3.598,0.632c0.443,0.08,1.102,0.178,1.976,0.303c0.873,0.125,1.45,0.211,1.736,0.248
			c-0.216,0.732-0.322,1.098-0.536,1.83c-0.632-0.04-1.061,0.012-1.283,0.148c-0.223,0.138-0.405,0.447-0.532,0.915
			c-0.848,3.128-1.545,6.414-2.186,9.731c-0.136,0.699-0.171,1.173-0.107,1.423c0.064,0.25,0.264,0.407,0.605,0.475
			c0.232,0.047,0.428,0.076,0.584,0.085c0.155,0.009,0.262,0.02,0.315,0.03c0.037,0.089,0.058,0.134,0.095,0.224
			c-0.22,0.676-0.332,1.015-0.549,1.691c-0.248-0.051-0.707-0.158-1.382-0.312c-0.677-0.155-1.323-0.287-1.943-0.397
			c-0.514-0.092-1.122-0.169-1.822-0.227c-0.701-0.058-1.159-0.086-1.376-0.096C286.857,128.577,286.944,128.218,287.12,127.503z"/>
		<path d="M297.155,129.204c-0.794-1.686-0.942-3.781-0.38-6.298c0.403-1.8,1.064-3.299,2.014-4.483
			c0.949-1.184,2.126-1.986,3.524-2.389c1.398-0.402,2.925-0.376,4.55,0.092c2.26,0.651,3.795,1.898,4.561,3.663
			c0.767,1.765,0.695,3.869-0.151,6.305c-0.606,1.743-1.443,3.157-2.48,4.261c-1.038,1.104-2.201,1.834-3.494,2.208
			c-1.294,0.373-2.636,0.355-4.06-0.043C299.293,131.974,297.948,130.889,297.155,129.204z M305.036,129.635
			c0.776-0.693,1.423-1.84,1.927-3.453c0.677-2.164,0.892-3.88,0.62-5.147c-0.271-1.268-0.988-2.076-2.136-2.4
			c-1.03-0.292-1.936-0.083-2.697,0.612c-0.762,0.696-1.35,1.878-1.775,3.536c-0.569,2.218-0.711,3.947-0.451,5.188
			c0.261,1.241,0.894,1.998,1.921,2.291C303.4,130.533,304.259,130.327,305.036,129.635z"/>
	</g>
</g>
<polygon fill="#FAEE20" points="279.942,289.423 343.173,284.327 317.963,348.574 276.223,356.703 "/>
<polygon fill="#FAEE20" points="253.466,289.434 190.234,284.338 215.444,348.585 257.185,356.714 "/>
<path fill="#D2A115" d="M415.055,154.218c1.841,1.112,5.079,4.687,4.196,6.148l0,0c-0.562,2.018-2.512,2.096-4.352,0.984
	l-18.543-11.205c-1.84-1.112-2.931-3.552-1.152-4.31l0,0c0.883-1.461,5.166-0.491,7.007,0.622L415.055,154.218z"/>
<g>
	<path fill="#FAEE20" d="M408.516,134.554c-0.642-0.354-1.448-0.12-1.802,0.522l-7.977,14.493c-0.354,0.642-0.119,1.449,0.522,1.802
		c0.643,0.354,1.449,0.12,1.803-0.523l7.976-14.493C409.392,135.714,409.158,134.907,408.516,134.554z"/>
	<path fill="#FAEE20" d="M421.971,141.958c-0.643-0.354-1.449-0.12-1.803,0.522l-7.976,14.493c-0.354,0.642-0.12,1.449,0.522,1.802
		c0.642,0.354,1.449,0.12,1.802-0.522l7.977-14.494C422.847,143.119,422.612,142.312,421.971,141.958z"/>
</g>
</svg>
